<svg width="50" height="50" viewBox="0 0 50 50" fill="none" xmlns="http://www.w3.org/2000/svg">
<path fill-rule="evenodd" clip-rule="evenodd" d="M16.6667 9.375C18.4764 9.37504 20.2475 9.89889 21.7661 10.8833C23.2847 11.8678 24.4859 13.2707 25.2247 14.9228C25.9635 16.5748 26.2083 18.4055 25.9296 20.1936C25.651 21.9818 24.8607 23.6511 23.6542 25C24.8607 26.3489 25.651 28.0182 25.9296 29.8064C26.2083 31.5945 25.9635 33.4251 25.2247 35.0772C24.4859 36.7293 23.2847 38.1322 21.7661 39.1167C20.2475 40.1011 18.4764 40.625 16.6667 40.625H8.33333C6.952 40.625 5.62724 40.0763 4.65049 39.0995C3.67373 38.1228 3.125 36.798 3.125 35.4167V14.5833C3.125 13.202 3.67373 11.8772 4.65049 10.9005C5.62724 9.92373 6.952 9.375 8.33333 9.375H16.6667ZM36.4583 17.7083C42.5896 17.7083 46.875 23.2437 46.875 29.1667C46.875 29.9435 46.5856 30.6925 46.0633 31.2675C45.541 31.8426 44.8232 32.2025 44.05 32.2771L43.75 32.2917H42.7167C43.3438 32.2929 43.956 32.4828 44.4737 32.8366C44.9914 33.1904 45.3908 33.6918 45.6197 34.2756C45.8487 34.8594 45.8968 35.4986 45.7576 36.11C45.6185 36.7215 45.2986 37.2769 44.8396 37.7042C42.9729 39.4396 40.2854 40.625 36.4583 40.625C30.3271 40.625 26.0417 35.0896 26.0417 29.1667C26.0417 23.2437 30.3271 17.7083 36.4583 17.7083ZM16.6667 28.125H9.375V34.375H16.6667C17.4692 34.3746 18.2408 34.0655 18.8216 33.5116C19.4025 32.9578 19.7479 32.2018 19.7865 31.4002C19.8251 30.5986 19.5538 29.8129 19.0288 29.2058C18.5038 28.5988 17.7655 28.217 16.9667 28.1396L16.6667 28.125ZM42.7 32.2917H33.125C33.9521 33.6354 35.2667 34.375 36.4583 34.375C38.8812 34.375 39.9958 33.6729 40.5771 33.1292C41.1533 32.5928 41.9128 32.2937 42.7 32.2917ZM36.4562 23.9583C35.2646 23.9583 33.95 24.6979 33.1229 26.0417H39.7896C38.9625 24.6979 37.6479 23.9583 36.4562 23.9583ZM16.6667 15.625H9.375V21.875H16.6667C17.4955 21.875 18.2903 21.5458 18.8764 20.9597C19.4624 20.3737 19.7917 19.5788 19.7917 18.75C19.7917 17.9212 19.4624 17.1263 18.8764 16.5403C18.2903 15.9542 17.4955 15.625 16.6667 15.625ZM39.5833 11.4583C40.4121 11.4583 41.207 11.7876 41.793 12.3736C42.3791 12.9597 42.7083 13.7545 42.7083 14.5833C42.7083 15.4121 42.3791 16.207 41.793 16.793C41.207 17.3791 40.4121 17.7083 39.5833 17.7083H33.3333C32.5045 17.7083 31.7097 17.3791 31.1236 16.793C30.5376 16.207 30.2083 15.4121 30.2083 14.5833C30.2083 13.7545 30.5376 12.9597 31.1236 12.3736C31.7097 11.7876 32.5045 11.4583 33.3333 11.4583H39.5833Z" fill="white"/>
</svg>
