<svg width="50" height="50" viewBox="0 0 50 50" fill="none" xmlns="http://www.w3.org/2000/svg">
<path d="M24.9993 4.1665C22.2635 4.1665 19.5544 4.70537 17.0268 5.75235C14.4992 6.79932 12.2025 8.33389 10.268 10.2684C6.36095 14.1755 4.16602 19.4745 4.16602 24.9998C4.16602 34.2082 10.1452 42.0207 18.416 44.7915C19.4577 44.9582 19.791 44.3123 19.791 43.7498V40.229C14.0202 41.479 12.791 37.4373 12.791 37.4373C11.8327 35.0207 10.4785 34.3748 10.4785 34.3748C8.58268 33.0832 10.6243 33.1248 10.6243 33.1248C12.7077 33.2707 13.8118 35.2707 13.8118 35.2707C15.6243 38.4373 18.6868 37.4998 19.8743 36.9998C20.0618 35.6457 20.6035 34.729 21.1868 34.2082C16.5618 33.6873 11.7077 31.8957 11.7077 23.9582C11.7077 21.6457 12.4993 19.7915 13.8535 18.3123C13.6452 17.7915 12.916 15.6248 14.0618 12.8123C14.0618 12.8123 15.8118 12.2498 19.791 14.9373C21.4368 14.479 23.2285 14.2498 24.9993 14.2498C26.7702 14.2498 28.5618 14.479 30.2077 14.9373C34.1868 12.2498 35.9368 12.8123 35.9368 12.8123C37.0827 15.6248 36.3535 17.7915 36.1452 18.3123C37.4993 19.7915 38.291 21.6457 38.291 23.9582C38.291 31.9165 33.416 33.6665 28.7702 34.1873C29.5202 34.8332 30.2077 36.104 30.2077 38.0415V43.7498C30.2077 44.3123 30.541 44.979 31.6035 44.7915C39.8743 41.9998 45.8327 34.2082 45.8327 24.9998C45.8327 22.264 45.2938 19.5549 44.2468 17.0273C43.1999 14.4996 41.6653 12.203 39.7307 10.2684C37.7962 8.33389 35.4995 6.79932 32.9719 5.75235C30.4443 4.70537 27.7352 4.1665 24.9993 4.1665Z" fill="white"/>
</svg>
