<svg width="50" height="50" viewBox="0 0 50 50" fill="none" xmlns="http://www.w3.org/2000/svg">
<path d="M27.1422 4.1665C29.486 4.17275 30.6755 4.18525 31.7026 4.21442L32.1068 4.229C32.5735 4.24567 33.0339 4.2665 33.5901 4.2915C35.8068 4.39567 37.3193 4.74567 38.6464 5.26025C40.0214 5.78942 41.1797 6.50609 42.338 7.66234C43.3978 8.70345 44.2176 9.96332 44.7401 11.354C45.2547 12.6811 45.6047 14.1936 45.7089 16.4123C45.7339 16.9665 45.7547 17.4269 45.7714 17.8957L45.7839 18.2998C45.8151 19.3248 45.8276 20.5144 45.8318 22.8582L45.8339 24.4123V27.1415C45.8389 28.6611 45.823 30.1807 45.7859 31.6998L45.7735 32.104C45.7568 32.5728 45.736 33.0332 45.711 33.5873C45.6068 35.8061 45.2526 37.3165 44.7401 38.6457C44.2176 40.0364 43.3978 41.2962 42.338 42.3373C41.2969 43.3971 40.037 44.2169 38.6464 44.7394C37.3193 45.254 35.8068 45.604 33.5901 45.7082L32.1068 45.7707L31.7026 45.7832C30.6755 45.8123 29.486 45.8269 27.1422 45.8311L25.588 45.8332H22.861C21.3407 45.8385 19.8204 45.8226 18.3005 45.7853L17.8964 45.7728C17.4018 45.754 16.9074 45.7325 16.413 45.7082C14.1964 45.604 12.6839 45.254 11.3547 44.7394C9.96476 44.2166 8.70562 43.3969 7.66512 42.3373C6.60459 41.2964 5.78409 40.0365 5.26095 38.6457C4.74637 37.3186 4.39637 35.8061 4.2922 33.5873L4.2297 32.104L4.21928 31.6998C4.18088 30.1807 4.16352 28.6611 4.1672 27.1415V22.8582C4.16143 21.3386 4.17671 19.819 4.21303 18.2998L4.22762 17.8957C4.24428 17.4269 4.26512 16.9665 4.29012 16.4123C4.39428 14.1936 4.74428 12.6832 5.25887 11.354C5.78323 9.96275 6.60517 8.70283 7.6672 7.66234C8.7071 6.60306 9.96551 5.78332 11.3547 5.26025C12.6839 4.74567 14.1943 4.39567 16.413 4.2915C16.9672 4.2665 17.4297 4.24567 17.8964 4.229L18.3005 4.2165C19.8197 4.17949 21.3393 4.16351 22.8589 4.16859L27.1422 4.1665ZM25.0005 14.5832C22.2379 14.5832 19.5883 15.6806 17.6348 17.6341C15.6813 19.5876 14.5839 22.2372 14.5839 24.9998C14.5839 27.7625 15.6813 30.412 17.6348 32.3655C19.5883 34.319 22.2379 35.4165 25.0005 35.4165C27.7632 35.4165 30.4127 34.319 32.3662 32.3655C34.3197 30.412 35.4172 27.7625 35.4172 24.9998C35.4172 22.2372 34.3197 19.5876 32.3662 17.6341C30.4127 15.6806 27.7632 14.5832 25.0005 14.5832ZM25.0005 18.7498C25.8213 18.7497 26.634 18.9112 27.3924 19.2252C28.1507 19.5392 28.8398 19.9994 29.4203 20.5797C30.0007 21.16 30.4612 21.8489 30.7754 22.6071C31.0896 23.3653 31.2514 24.178 31.2516 24.9988C31.2517 25.8196 31.0902 26.6323 30.7762 27.3906C30.4623 28.149 30.002 28.8381 29.4217 29.4185C28.8415 29.999 28.1525 30.4595 27.3943 30.7737C26.6361 31.0879 25.8234 31.2497 25.0026 31.2498C23.345 31.2498 21.7553 30.5914 20.5832 29.4193C19.4111 28.2472 18.7526 26.6574 18.7526 24.9998C18.7526 23.3422 19.4111 21.7525 20.5832 20.5804C21.7553 19.4083 23.345 18.7498 25.0026 18.7498M35.9401 11.4582C35.2494 11.4582 34.5871 11.7325 34.0987 12.2209C33.6103 12.7093 33.336 13.3717 33.336 14.0623C33.336 14.753 33.6103 15.4154 34.0987 15.9038C34.5871 16.3921 35.2494 16.6665 35.9401 16.6665C36.6308 16.6665 37.2932 16.3921 37.7815 15.9038C38.2699 15.4154 38.5443 14.753 38.5443 14.0623C38.5443 13.3717 38.2699 12.7093 37.7815 12.2209C37.2932 11.7325 36.6308 11.4582 35.9401 11.4582Z" fill="white"/>
</svg>
