<svg width="50" height="50" viewBox="0 0 50 50" fill="none" xmlns="http://www.w3.org/2000/svg">
<path d="M9.89583 3.90625C8.7217 3.90625 7.59565 4.37267 6.76541 5.20291C5.93517 6.03315 5.46875 7.1592 5.46875 8.33333C5.46875 9.50747 5.93517 10.6335 6.76541 11.4638C7.59565 12.294 8.7217 12.7604 9.89583 12.7604C11.07 12.7604 12.196 12.294 13.0263 11.4638C13.8565 10.6335 14.3229 9.50747 14.3229 8.33333C14.3229 7.1592 13.8565 6.03315 13.0263 5.20291C12.196 4.37267 11.07 3.90625 9.89583 3.90625ZM5.72917 16.4062C5.6601 16.4062 5.59386 16.4337 5.54502 16.4825C5.49619 16.5314 5.46875 16.5976 5.46875 16.6667V43.75C5.46875 43.8937 5.58542 44.0104 5.72917 44.0104H14.0625C14.1316 44.0104 14.1978 43.983 14.2466 43.9341C14.2955 43.8853 14.3229 43.8191 14.3229 43.75V16.6667C14.3229 16.5976 14.2955 16.5314 14.2466 16.4825C14.1978 16.4337 14.1316 16.4062 14.0625 16.4062H5.72917ZM19.2708 16.4062C19.2018 16.4062 19.1355 16.4337 19.0867 16.4825C19.0379 16.5314 19.0104 16.5976 19.0104 16.6667V43.75C19.0104 43.8937 19.1271 44.0104 19.2708 44.0104H27.6042C27.6732 44.0104 27.7395 43.983 27.7883 43.9341C27.8371 43.8853 27.8646 43.8191 27.8646 43.75V29.1667C27.8646 28.1307 28.2761 27.1371 29.0087 26.4045C29.7413 25.672 30.7348 25.2604 31.7708 25.2604C32.8068 25.2604 33.8004 25.672 34.533 26.4045C35.2655 27.1371 35.6771 28.1307 35.6771 29.1667V43.75C35.6771 43.8937 35.7937 44.0104 35.9375 44.0104H44.2708C44.3399 44.0104 44.4061 43.983 44.455 43.9341C44.5038 43.8853 44.5312 43.8191 44.5312 43.75V25.7917C44.5312 20.7354 40.1354 16.7812 35.1042 17.2375C33.5476 17.3803 32.023 17.7655 30.5854 18.3792L27.8646 19.5458V16.6667C27.8646 16.5976 27.8371 16.5314 27.7883 16.4825C27.7395 16.4337 27.6732 16.4062 27.6042 16.4062H19.2708Z" fill="white"/>
</svg>
