<svg width="85" height="95" viewBox="0 0 85 95" fill="none" xmlns="http://www.w3.org/2000/svg">
<mask id="path-1-outside-1_133_128" maskUnits="userSpaceOnUse" x="0" y="-0.0976562" width="85" height="95" fill="black">
<rect fill="white" y="-0.0976562" width="85" height="95"/>
<path d="M30.1888 2.18864C29.7529 2.47194 25.6015 7.70201 24.4684 9.40178C23.2371 11.2432 21.7988 13.7929 20.0664 17.1597C19.064 19.121 18.1814 20.8099 18.1269 20.9189C18.0615 21.0278 17.7564 21.6489 17.4513 22.3135C16.5579 24.2312 15.6208 26.2361 14.7491 28.0557C14.4441 28.7095 14.1934 29.2652 14.1934 29.3088C14.1934 29.5703 13.2019 30.9432 12.3629 31.8475C11.8399 32.4141 11.1535 33.2095 10.8375 33.6018C9.98759 34.6914 8.69097 36.9469 7.84108 38.821C7.48151 39.6273 6.34833 42.6999 6.34833 42.8852C6.34833 42.9615 6.31564 43.0595 6.28295 43.1031C6.17399 43.2121 5.62919 44.8247 5.54202 45.3041C5.49844 45.5438 5.29142 46.0123 5.09529 46.3392C4.89916 46.6661 4.68124 47.1128 4.62676 47.3198C4.56139 47.5269 4.44153 47.9409 4.34347 48.246C4.2454 48.5402 4.16913 48.9107 4.16913 49.0632C4.16913 49.2157 4.03838 49.6298 3.87494 49.9894C3.59164 50.6213 3.58075 50.7303 3.53716 53.0402C3.50447 54.849 3.53716 55.7316 3.66791 56.6359C3.76598 57.2897 3.91852 58.4011 4.01659 59.0875C4.10375 59.774 4.27809 60.711 4.38705 61.1578C4.59407 61.9423 4.69214 62.5742 4.93185 64.6445C5.04081 65.5379 5.16066 66.2462 5.37858 67.2268C5.43306 67.4774 5.47665 67.837 5.47665 68.0222C5.47665 68.2075 5.55292 68.7196 5.64009 69.1663C5.75994 69.7547 5.78174 70.038 5.69457 70.1905C5.64009 70.3104 5.12798 70.7462 4.56139 71.1712C3.77687 71.7596 3.41731 72.13 2.99236 72.7511C2.50204 73.4702 2.42577 73.6773 2.21875 74.7233C2.08799 75.3661 1.98993 76.1942 2.00083 76.5647C2.01172 78.101 2.48025 80.4001 2.90519 81.0321C3.05774 81.2609 3.18849 81.5224 3.18849 81.6095C3.18849 82.0563 5.74905 85.1616 6.79506 85.9679C7.12194 86.2185 7.53599 86.5454 7.71033 86.6871C7.89556 86.8396 8.3314 87.112 8.69097 87.319C9.05053 87.5152 9.49727 87.7876 9.67161 87.9074C10.2927 88.3542 12.7225 89.5636 13.1583 89.6508C13.398 89.6944 13.6486 89.7706 13.714 89.8251C13.9319 90.0104 15.4683 90.5987 16.7976 91.0128C17.5494 91.2525 18.8133 91.5358 19.6305 91.6665C20.4477 91.7864 21.5047 91.9607 21.9841 92.0479C22.4635 92.1351 23.4223 92.2767 24.1088 92.3639C24.7952 92.4511 25.7323 92.6036 26.179 92.7017C26.811 92.8433 27.7372 92.8869 30.374 92.8978C33.9697 92.9196 34.3401 92.8869 37.6307 92.2549C39.5811 91.8845 42.9807 90.7513 44.8766 89.8578C45.3015 89.6508 45.6938 89.4873 45.7482 89.4873C45.8027 89.4873 46.086 89.3675 46.3911 89.2258C46.6853 89.0733 47.4916 88.7137 48.1671 88.4086C48.8427 88.1144 49.6708 87.6677 50.0195 87.428C50.7277 86.9268 50.804 86.9159 51.8609 87.1338C52.4384 87.2537 52.896 87.2646 53.9638 87.1883C56.7641 86.9813 57.1128 86.9159 58.7036 86.3493C60.5123 85.7064 61.0462 85.4449 61.7 84.911C61.9724 84.6931 62.4191 84.388 62.6915 84.2355C63.476 83.7778 64.631 82.3505 65.2956 81.0103C65.9167 79.7463 66.1673 78.0792 65.9385 76.5647C65.7751 75.4315 65.7751 74.9303 65.9603 74.6034C66.2763 74.0041 72.3127 71.8903 77.5536 70.5283C77.9786 70.4194 78.981 70.147 79.7873 69.929C80.5936 69.7002 81.4653 69.4823 81.7268 69.4278C82.4024 69.2971 82.5767 69.1663 82.8273 68.6433C83.0452 68.1966 83.0452 68.1421 82.8927 67.6191C82.7401 67.0852 82.2389 66.4968 81.9447 66.4968C81.8902 66.4968 81.6832 66.3878 81.498 66.2462C81.0404 65.9302 79.2425 64.8515 78.4362 64.4157C78.0766 64.2304 77.5427 63.9144 77.2377 63.7183C75.4616 62.5742 71.964 60.5585 68.7061 58.7933C68.2049 58.5318 67.769 58.2594 67.7254 58.194C67.6928 58.1178 67.6383 57.2352 67.6165 56.211C67.5947 55.1868 67.5293 53.901 67.464 53.3671C67.3986 52.8223 67.3005 52.016 67.2569 51.5693C67.148 50.556 66.7557 48.3223 66.5487 47.5922C66.4615 47.2872 66.3417 46.7097 66.2763 46.2956C66.1019 45.2169 64.9906 41.6866 64.5547 40.8367C64.4349 40.597 63.7375 39.1914 63.0184 37.7096C61.3731 34.3209 60.9481 33.6672 58.4639 30.856C54.2798 26.1053 48.9735 22.6186 43.994 21.3438C42.1961 20.8862 41.0412 20.7227 39.1235 20.6573L37.3038 20.592L37.1949 20.2542C37.1295 20.069 35.9309 16.0483 34.5145 11.3195C33.1089 6.59063 31.8776 2.60269 31.7796 2.46104C31.4745 1.98162 30.7009 1.85087 30.1888 2.18864ZM14.8472 40.5316C15.1741 40.8803 15.6317 41.5014 15.8605 41.9263C16.7213 43.5171 17.0373 43.9966 18.3666 45.7617C18.7044 46.2194 18.9877 46.6334 18.9877 46.6879C18.9877 46.7315 19.2928 47.1455 19.6741 47.614C20.3824 48.4857 20.6657 48.9107 21.047 49.6625C21.3194 50.1855 21.7662 50.4797 22.3001 50.4797C22.6051 50.4797 22.8013 50.3816 23.1608 50.0656C23.4115 49.8368 23.8146 49.5317 24.0652 49.3683C24.3049 49.2157 24.6972 48.8344 24.926 48.5293C25.3509 47.9736 29.2299 44.3017 31.2784 42.5147C32.5859 41.3815 33.9697 40.706 35.2009 40.597C36.2142 40.5207 36.661 40.6624 38.0121 41.5559C38.6549 41.9808 39.5048 42.5038 39.8971 42.7108C40.2893 42.9179 40.7143 43.1794 40.8341 43.2883C40.954 43.3973 41.4661 43.7351 41.9782 44.0511C42.5775 44.4106 43.2313 44.9445 43.8305 45.5547C44.3427 46.0777 45.3124 46.9712 45.9988 47.5378C46.6853 48.1044 47.3717 48.7581 47.5243 49.0087C47.6768 49.2484 48.0146 49.7279 48.2652 50.0656C48.5267 50.4034 48.8536 50.9482 48.9952 51.2751C49.1369 51.602 49.3112 51.8962 49.3766 51.9397C49.442 51.9833 49.6926 52.4301 49.9432 52.9422C50.1938 53.4543 50.5207 54.0536 50.6732 54.2715C50.8149 54.4894 51.2616 55.5027 51.643 56.527C52.1769 57.9434 52.3621 58.5427 52.3839 59.0875C52.4057 59.4798 52.5146 60.188 52.6127 60.6674C52.7108 61.1469 52.8306 61.8333 52.8851 62.1929C52.9396 62.5524 53.0377 63.021 53.0921 63.228C53.1466 63.435 53.2011 63.8382 53.2011 64.1106C53.2011 64.383 53.2774 65.0912 53.3645 65.6905C53.4517 66.2789 53.528 67.1397 53.528 67.5864C53.528 68.9811 53.2338 69.1336 51.218 68.8503C50.5316 68.7523 49.8996 68.6869 49.8124 68.7196C49.7253 68.7414 49.5182 68.7959 49.3548 68.8394C49.1369 68.883 48.9952 69.0138 48.8863 69.2753C48.6902 69.7547 48.6902 70.3758 48.8863 70.452C48.9626 70.4847 49.1914 70.8988 49.3766 71.3673C49.5727 71.8358 49.9432 72.7075 50.2047 73.3068C50.4662 73.9061 50.8367 74.854 51.0219 75.4097C51.2507 76.0635 51.4577 76.4666 51.5994 76.532C51.8718 76.6845 52.373 76.5865 52.7653 76.3032C53.1902 75.9981 54.0292 74.8976 54.6612 73.8298C55.1297 73.0344 55.2713 72.8818 55.9142 72.5005C57.5159 71.5307 58.867 71.1167 59.7823 71.3128C60.5995 71.4763 62.4082 72.4569 63.1056 73.0998L63.7048 73.6555L63.792 74.5707C64.0099 77.0332 64.0099 77.3601 63.8356 78.5805C63.5414 80.6616 63.0293 81.5006 61.3295 82.6773C60.9917 82.9171 60.5014 83.2657 60.2508 83.451C59.5752 83.9631 57.2108 84.8565 56.0885 85.02C53.5716 85.4013 52.7979 85.4231 51.7192 85.1725C50.6187 84.9219 49.9105 85.0963 48.7337 85.8917C48.0255 86.3711 45.7373 87.5261 45.4976 87.5261C45.4105 87.5261 44.6368 87.842 43.787 88.2125C42.2615 88.899 42.0218 88.9861 40.0169 89.5963C37.7288 90.2828 37.3692 90.3699 36.236 90.5225C35.5932 90.6096 34.7651 90.7404 34.4055 90.8167C33.9697 90.9038 32.6839 90.9474 30.5919 90.9474C27.65 90.9474 26.1681 90.8602 24.7626 90.5769C24.4902 90.5225 23.5858 90.3808 22.7468 90.2501C21.9078 90.1193 20.9054 89.9559 20.5131 89.8687C20.1209 89.7815 19.5652 89.6944 19.2601 89.6617C18.6608 89.6072 15.5663 88.583 14.6075 88.1362C14.4114 88.0382 14.0191 87.8965 13.7358 87.8094C13.1583 87.635 11.6438 86.7851 9.99849 85.6955C8.40767 84.6386 7.7975 84.1483 7.00209 83.3093C5.47665 81.6749 4.68124 80.3129 4.26719 78.5587C4.15823 78.0683 4.01659 77.4691 3.95121 77.2185C3.88583 76.9243 3.88583 76.3904 3.96211 75.693C4.06017 74.7451 4.12555 74.538 4.45243 74.0368C4.65945 73.7317 4.87737 73.4702 4.93185 73.4702C4.99722 73.4702 5.25873 73.2741 5.53113 73.0235C5.79263 72.7838 6.21758 72.5005 6.47908 72.4024C7.54689 71.9884 7.75391 71.6615 7.7757 70.3649C7.7866 69.7765 7.72122 69.1009 7.61226 68.6651C7.5251 68.2728 7.39434 67.423 7.33986 66.791C7.28538 66.159 7.20911 65.5815 7.16553 65.5162C7.12194 65.4508 7.04567 64.9169 7.00209 64.3394C6.89313 63.1408 6.77327 62.3781 6.44639 60.7982C6.31564 60.188 6.17399 59.2945 6.11951 58.8151C6.07593 58.3357 5.98876 57.6275 5.92338 57.2352C5.85801 56.8429 5.77084 55.5899 5.73815 54.4458C5.67278 52.4083 5.68367 52.3429 5.96697 51.3949C6.26116 50.4034 7.10015 48.4748 7.45972 47.9518C7.56868 47.7993 7.65585 47.5269 7.65585 47.3634C7.65585 47.1891 7.76481 46.9385 7.91735 46.7859C8.059 46.6225 8.3205 46.2738 8.49484 45.9905C8.65828 45.7181 9.21397 44.9772 9.71519 44.367C10.2164 43.746 10.7721 42.9941 10.9573 42.6999C11.1426 42.3949 11.5348 41.8719 11.8399 41.5341C12.145 41.2072 12.5155 40.7714 12.668 40.5752C12.9295 40.2375 13.5724 39.9215 14.03 39.9106C14.1499 39.9106 14.4985 40.183 14.8472 40.5316ZM58.9651 44.0728C59.6951 45.7072 60.5777 47.7666 60.6648 48.0826C60.7084 48.2351 60.9808 48.9216 61.2641 49.608C62.0377 51.4494 62.1031 51.7327 61.8634 52.0051C61.7653 52.1141 61.4929 52.2666 61.275 52.3429C61.0571 52.4083 60.5341 52.6371 60.0983 52.8332C59.6624 53.0402 59.2593 53.2037 59.1939 53.2037C59.0413 53.2037 58.9106 52.8441 58.8234 52.1686C58.6382 50.7848 57.2217 46.1322 56.7314 45.2823C56.3173 44.5632 56.3609 44.4869 57.3743 44.0293C58.5619 43.4954 58.7036 43.4954 58.9651 44.0728Z"/>
<path d="M14.8472 40.5316C15.1741 40.8803 15.6317 41.5014 15.8605 41.9263C16.7213 43.5171 17.0373 43.9966 18.3666 45.7617C18.7044 46.2194 18.9877 46.6334 18.9877 46.6879C18.9877 46.7315 19.2928 47.1455 19.6741 47.614C20.3824 48.4857 20.6657 48.9107 21.047 49.6625C21.3194 50.1855 21.7662 50.4797 22.3001 50.4797C22.6051 50.4797 22.8013 50.3816 23.1608 50.0656C23.4115 49.8368 23.8146 49.5317 24.0652 49.3683C24.3049 49.2157 24.6972 48.8344 24.926 48.5293C25.3509 47.9736 29.2299 44.3017 31.2784 42.5147C32.5859 41.3815 33.9697 40.706 35.2009 40.597C36.2142 40.5207 36.661 40.6624 38.0121 41.5559C38.6549 41.9808 39.5048 42.5038 39.8971 42.7108C40.2893 42.9179 40.7143 43.1794 40.8341 43.2883C40.954 43.3973 41.4661 43.7351 41.9782 44.0511C42.5775 44.4106 43.2313 44.9445 43.8305 45.5547C44.3427 46.0777 45.3124 46.9712 45.9988 47.5378C46.6853 48.1044 47.3717 48.7581 47.5243 49.0087C47.6768 49.2484 48.0146 49.7279 48.2652 50.0656C48.5267 50.4034 48.8536 50.9482 48.9952 51.2751C49.1369 51.602 49.3112 51.8962 49.3766 51.9397C49.442 51.9833 49.6926 52.4301 49.9432 52.9422C50.1938 53.4543 50.5207 54.0536 50.6732 54.2715C50.8149 54.4894 51.2616 55.5027 51.643 56.527C52.1769 57.9434 52.3621 58.5427 52.3839 59.0875C52.4057 59.4798 52.5146 60.188 52.6127 60.6674C52.7108 61.1469 52.8306 61.8333 52.8851 62.1929C52.9396 62.5524 53.0377 63.021 53.0921 63.228C53.1466 63.435 53.2011 63.8382 53.2011 64.1106C53.2011 64.383 53.2774 65.0912 53.3645 65.6905C53.4517 66.2789 53.528 67.1397 53.528 67.5864C53.528 68.9811 53.2338 69.1336 51.218 68.8503C50.5316 68.7523 49.8996 68.6869 49.8124 68.7196C49.7253 68.7414 49.5182 68.7959 49.3548 68.8394C49.1369 68.883 48.9952 69.0138 48.8863 69.2753C48.6902 69.7547 48.6902 70.3758 48.8863 70.452C48.9626 70.4847 49.1914 70.8988 49.3766 71.3673C49.5727 71.8358 49.9432 72.7075 50.2047 73.3068C50.4662 73.9061 50.8367 74.854 51.0219 75.4097C51.2507 76.0635 51.4577 76.4666 51.5994 76.532C51.8718 76.6845 52.373 76.5865 52.7653 76.3032C53.1902 75.9981 54.0292 74.8976 54.6612 73.8298C55.1297 73.0344 55.2713 72.8818 55.9142 72.5005C57.5159 71.5307 58.867 71.1167 59.7823 71.3128C60.5995 71.4763 62.4082 72.4569 63.1056 73.0998L63.7048 73.6555L63.792 74.5707C64.0099 77.0332 64.0099 77.3601 63.8356 78.5805C63.5414 80.6616 63.0293 81.5006 61.3295 82.6773C60.9917 82.9171 60.5014 83.2657 60.2508 83.451C59.5752 83.9631 57.2108 84.8565 56.0885 85.02C53.5716 85.4013 52.7979 85.4231 51.7192 85.1725C50.6187 84.9219 49.9105 85.0963 48.7337 85.8917C48.0255 86.3711 45.7373 87.5261 45.4976 87.5261C45.4105 87.5261 44.6368 87.842 43.787 88.2125C42.2615 88.899 42.0218 88.9861 40.0169 89.5963C37.7288 90.2828 37.3692 90.3699 36.236 90.5225C35.5932 90.6096 34.7651 90.7404 34.4055 90.8167C33.9697 90.9038 32.6839 90.9474 30.5919 90.9474C27.65 90.9474 26.1681 90.8602 24.7626 90.5769C24.4902 90.5225 23.5858 90.3808 22.7468 90.2501C21.9078 90.1193 20.9054 89.9559 20.5131 89.8687C20.1209 89.7815 19.5652 89.6944 19.2601 89.6617C18.6608 89.6072 15.5663 88.583 14.6075 88.1362C14.4114 88.0382 14.0191 87.8965 13.7358 87.8094C13.1583 87.635 11.6438 86.7851 9.99849 85.6955C8.40767 84.6386 7.7975 84.1483 7.00209 83.3093C5.47665 81.6749 4.68124 80.3129 4.26719 78.5587C4.15823 78.0683 4.01659 77.4691 3.95121 77.2185C3.88583 76.9243 3.88583 76.3904 3.96211 75.693C4.06017 74.7451 4.12555 74.538 4.45243 74.0368C4.65945 73.7317 4.87737 73.4702 4.93185 73.4702C4.99722 73.4702 5.25873 73.2741 5.53113 73.0235C5.79263 72.7838 6.21758 72.5005 6.47908 72.4024C7.54689 71.9884 7.75391 71.6615 7.7757 70.3649C7.7866 69.7765 7.72122 69.1009 7.61226 68.6651C7.5251 68.2728 7.39434 67.423 7.33986 66.791C7.28538 66.159 7.20911 65.5815 7.16553 65.5162C7.12194 65.4508 7.04567 64.9169 7.00209 64.3394C6.89313 63.1408 6.77327 62.3781 6.44639 60.7982C6.31564 60.188 6.17399 59.2945 6.11951 58.8151C6.07593 58.3357 5.98876 57.6275 5.92338 57.2352C5.85801 56.8429 5.77084 55.5899 5.73815 54.4458C5.67278 52.4083 5.68367 52.3429 5.96697 51.3949C6.26116 50.4034 7.10015 48.4748 7.45972 47.9518C7.56868 47.7993 7.65585 47.5269 7.65585 47.3634C7.65585 47.1891 7.76481 46.9385 7.91735 46.7859C8.059 46.6225 8.3205 46.2738 8.49484 45.9905C8.65828 45.7181 9.21397 44.9772 9.71519 44.367C10.2164 43.746 10.7721 42.9941 10.9573 42.6999C11.1426 42.3949 11.5348 41.8719 11.8399 41.5341C12.145 41.2072 12.5155 40.7714 12.668 40.5752C12.9295 40.2375 13.5724 39.9215 14.03 39.9106C14.1499 39.9106 14.4985 40.183 14.8472 40.5316Z"/>
<path d="M58.9651 44.0728C59.6951 45.7072 60.5777 47.7666 60.6648 48.0826C60.7084 48.2351 60.9808 48.9216 61.2641 49.608C62.0377 51.4494 62.1031 51.7327 61.8634 52.0051C61.7653 52.1141 61.4929 52.2666 61.275 52.3429C61.0571 52.4083 60.5341 52.6371 60.0983 52.8332C59.6624 53.0402 59.2593 53.2037 59.1939 53.2037C59.0413 53.2037 58.9106 52.8441 58.8234 52.1686C58.6382 50.7848 57.2217 46.1322 56.7314 45.2823C56.3173 44.5632 56.3609 44.4869 57.3743 44.0293C58.5619 43.4954 58.7036 43.4954 58.9651 44.0728Z"/>
</mask>
<path d="M30.1888 2.18864C29.7529 2.47194 25.6015 7.70201 24.4684 9.40178C23.2371 11.2432 21.7988 13.7929 20.0664 17.1597C19.064 19.121 18.1814 20.8099 18.1269 20.9189C18.0615 21.0278 17.7564 21.6489 17.4513 22.3135C16.5579 24.2312 15.6208 26.2361 14.7491 28.0557C14.4441 28.7095 14.1934 29.2652 14.1934 29.3088C14.1934 29.5703 13.2019 30.9432 12.3629 31.8475C11.8399 32.4141 11.1535 33.2095 10.8375 33.6018C9.98759 34.6914 8.69097 36.9469 7.84108 38.821C7.48151 39.6273 6.34833 42.6999 6.34833 42.8852C6.34833 42.9615 6.31564 43.0595 6.28295 43.1031C6.17399 43.2121 5.62919 44.8247 5.54202 45.3041C5.49844 45.5438 5.29142 46.0123 5.09529 46.3392C4.89916 46.6661 4.68124 47.1128 4.62676 47.3198C4.56139 47.5269 4.44153 47.9409 4.34347 48.246C4.2454 48.5402 4.16913 48.9107 4.16913 49.0632C4.16913 49.2157 4.03838 49.6298 3.87494 49.9894C3.59164 50.6213 3.58075 50.7303 3.53716 53.0402C3.50447 54.849 3.53716 55.7316 3.66791 56.6359C3.76598 57.2897 3.91852 58.4011 4.01659 59.0875C4.10375 59.774 4.27809 60.711 4.38705 61.1578C4.59407 61.9423 4.69214 62.5742 4.93185 64.6445C5.04081 65.5379 5.16066 66.2462 5.37858 67.2268C5.43306 67.4774 5.47665 67.837 5.47665 68.0222C5.47665 68.2075 5.55292 68.7196 5.64009 69.1663C5.75994 69.7547 5.78174 70.038 5.69457 70.1905C5.64009 70.3104 5.12798 70.7462 4.56139 71.1712C3.77687 71.7596 3.41731 72.13 2.99236 72.7511C2.50204 73.4702 2.42577 73.6773 2.21875 74.7233C2.08799 75.3661 1.98993 76.1942 2.00083 76.5647C2.01172 78.101 2.48025 80.4001 2.90519 81.0321C3.05774 81.2609 3.18849 81.5224 3.18849 81.6095C3.18849 82.0563 5.74905 85.1616 6.79506 85.9679C7.12194 86.2185 7.53599 86.5454 7.71033 86.6871C7.89556 86.8396 8.3314 87.112 8.69097 87.319C9.05053 87.5152 9.49727 87.7876 9.67161 87.9074C10.2927 88.3542 12.7225 89.5636 13.1583 89.6508C13.398 89.6944 13.6486 89.7706 13.714 89.8251C13.9319 90.0104 15.4683 90.5987 16.7976 91.0128C17.5494 91.2525 18.8133 91.5358 19.6305 91.6665C20.4477 91.7864 21.5047 91.9607 21.9841 92.0479C22.4635 92.1351 23.4223 92.2767 24.1088 92.3639C24.7952 92.4511 25.7323 92.6036 26.179 92.7017C26.811 92.8433 27.7372 92.8869 30.374 92.8978C33.9697 92.9196 34.3401 92.8869 37.6307 92.2549C39.5811 91.8845 42.9807 90.7513 44.8766 89.8578C45.3015 89.6508 45.6938 89.4873 45.7482 89.4873C45.8027 89.4873 46.086 89.3675 46.3911 89.2258C46.6853 89.0733 47.4916 88.7137 48.1671 88.4086C48.8427 88.1144 49.6708 87.6677 50.0195 87.428C50.7277 86.9268 50.804 86.9159 51.8609 87.1338C52.4384 87.2537 52.896 87.2646 53.9638 87.1883C56.7641 86.9813 57.1128 86.9159 58.7036 86.3493C60.5123 85.7064 61.0462 85.4449 61.7 84.911C61.9724 84.6931 62.4191 84.388 62.6915 84.2355C63.476 83.7778 64.631 82.3505 65.2956 81.0103C65.9167 79.7463 66.1673 78.0792 65.9385 76.5647C65.7751 75.4315 65.7751 74.9303 65.9603 74.6034C66.2763 74.0041 72.3127 71.8903 77.5536 70.5283C77.9786 70.4194 78.981 70.147 79.7873 69.929C80.5936 69.7002 81.4653 69.4823 81.7268 69.4278C82.4024 69.2971 82.5767 69.1663 82.8273 68.6433C83.0452 68.1966 83.0452 68.1421 82.8927 67.6191C82.7401 67.0852 82.2389 66.4968 81.9447 66.4968C81.8902 66.4968 81.6832 66.3878 81.498 66.2462C81.0404 65.9302 79.2425 64.8515 78.4362 64.4157C78.0766 64.2304 77.5427 63.9144 77.2377 63.7183C75.4616 62.5742 71.964 60.5585 68.7061 58.7933C68.2049 58.5318 67.769 58.2594 67.7254 58.194C67.6928 58.1178 67.6383 57.2352 67.6165 56.211C67.5947 55.1868 67.5293 53.901 67.464 53.3671C67.3986 52.8223 67.3005 52.016 67.2569 51.5693C67.148 50.556 66.7557 48.3223 66.5487 47.5922C66.4615 47.2872 66.3417 46.7097 66.2763 46.2956C66.1019 45.2169 64.9906 41.6866 64.5547 40.8367C64.4349 40.597 63.7375 39.1914 63.0184 37.7096C61.3731 34.3209 60.9481 33.6672 58.4639 30.856C54.2798 26.1053 48.9735 22.6186 43.994 21.3438C42.1961 20.8862 41.0412 20.7227 39.1235 20.6573L37.3038 20.592L37.1949 20.2542C37.1295 20.069 35.9309 16.0483 34.5145 11.3195C33.1089 6.59063 31.8776 2.60269 31.7796 2.46104C31.4745 1.98162 30.7009 1.85087 30.1888 2.18864ZM14.8472 40.5316C15.1741 40.8803 15.6317 41.5014 15.8605 41.9263C16.7213 43.5171 17.0373 43.9966 18.3666 45.7617C18.7044 46.2194 18.9877 46.6334 18.9877 46.6879C18.9877 46.7315 19.2928 47.1455 19.6741 47.614C20.3824 48.4857 20.6657 48.9107 21.047 49.6625C21.3194 50.1855 21.7662 50.4797 22.3001 50.4797C22.6051 50.4797 22.8013 50.3816 23.1608 50.0656C23.4115 49.8368 23.8146 49.5317 24.0652 49.3683C24.3049 49.2157 24.6972 48.8344 24.926 48.5293C25.3509 47.9736 29.2299 44.3017 31.2784 42.5147C32.5859 41.3815 33.9697 40.706 35.2009 40.597C36.2142 40.5207 36.661 40.6624 38.0121 41.5559C38.6549 41.9808 39.5048 42.5038 39.8971 42.7108C40.2893 42.9179 40.7143 43.1794 40.8341 43.2883C40.954 43.3973 41.4661 43.7351 41.9782 44.0511C42.5775 44.4106 43.2313 44.9445 43.8305 45.5547C44.3427 46.0777 45.3124 46.9712 45.9988 47.5378C46.6853 48.1044 47.3717 48.7581 47.5243 49.0087C47.6768 49.2484 48.0146 49.7279 48.2652 50.0656C48.5267 50.4034 48.8536 50.9482 48.9952 51.2751C49.1369 51.602 49.3112 51.8962 49.3766 51.9397C49.442 51.9833 49.6926 52.4301 49.9432 52.9422C50.1938 53.4543 50.5207 54.0536 50.6732 54.2715C50.8149 54.4894 51.2616 55.5027 51.643 56.527C52.1769 57.9434 52.3621 58.5427 52.3839 59.0875C52.4057 59.4798 52.5146 60.188 52.6127 60.6674C52.7108 61.1469 52.8306 61.8333 52.8851 62.1929C52.9396 62.5524 53.0377 63.021 53.0921 63.228C53.1466 63.435 53.2011 63.8382 53.2011 64.1106C53.2011 64.383 53.2774 65.0912 53.3645 65.6905C53.4517 66.2789 53.528 67.1397 53.528 67.5864C53.528 68.9811 53.2338 69.1336 51.218 68.8503C50.5316 68.7523 49.8996 68.6869 49.8124 68.7196C49.7253 68.7414 49.5182 68.7959 49.3548 68.8394C49.1369 68.883 48.9952 69.0138 48.8863 69.2753C48.6902 69.7547 48.6902 70.3758 48.8863 70.452C48.9626 70.4847 49.1914 70.8988 49.3766 71.3673C49.5727 71.8358 49.9432 72.7075 50.2047 73.3068C50.4662 73.9061 50.8367 74.854 51.0219 75.4097C51.2507 76.0635 51.4577 76.4666 51.5994 76.532C51.8718 76.6845 52.373 76.5865 52.7653 76.3032C53.1902 75.9981 54.0292 74.8976 54.6612 73.8298C55.1297 73.0344 55.2713 72.8818 55.9142 72.5005C57.5159 71.5307 58.867 71.1167 59.7823 71.3128C60.5995 71.4763 62.4082 72.4569 63.1056 73.0998L63.7048 73.6555L63.792 74.5707C64.0099 77.0332 64.0099 77.3601 63.8356 78.5805C63.5414 80.6616 63.0293 81.5006 61.3295 82.6773C60.9917 82.9171 60.5014 83.2657 60.2508 83.451C59.5752 83.9631 57.2108 84.8565 56.0885 85.02C53.5716 85.4013 52.7979 85.4231 51.7192 85.1725C50.6187 84.9219 49.9105 85.0963 48.7337 85.8917C48.0255 86.3711 45.7373 87.5261 45.4976 87.5261C45.4105 87.5261 44.6368 87.842 43.787 88.2125C42.2615 88.899 42.0218 88.9861 40.0169 89.5963C37.7288 90.2828 37.3692 90.3699 36.236 90.5225C35.5932 90.6096 34.7651 90.7404 34.4055 90.8167C33.9697 90.9038 32.6839 90.9474 30.5919 90.9474C27.65 90.9474 26.1681 90.8602 24.7626 90.5769C24.4902 90.5225 23.5858 90.3808 22.7468 90.2501C21.9078 90.1193 20.9054 89.9559 20.5131 89.8687C20.1209 89.7815 19.5652 89.6944 19.2601 89.6617C18.6608 89.6072 15.5663 88.583 14.6075 88.1362C14.4114 88.0382 14.0191 87.8965 13.7358 87.8094C13.1583 87.635 11.6438 86.7851 9.99849 85.6955C8.40767 84.6386 7.7975 84.1483 7.00209 83.3093C5.47665 81.6749 4.68124 80.3129 4.26719 78.5587C4.15823 78.0683 4.01659 77.4691 3.95121 77.2185C3.88583 76.9243 3.88583 76.3904 3.96211 75.693C4.06017 74.7451 4.12555 74.538 4.45243 74.0368C4.65945 73.7317 4.87737 73.4702 4.93185 73.4702C4.99722 73.4702 5.25873 73.2741 5.53113 73.0235C5.79263 72.7838 6.21758 72.5005 6.47908 72.4024C7.54689 71.9884 7.75391 71.6615 7.7757 70.3649C7.7866 69.7765 7.72122 69.1009 7.61226 68.6651C7.5251 68.2728 7.39434 67.423 7.33986 66.791C7.28538 66.159 7.20911 65.5815 7.16553 65.5162C7.12194 65.4508 7.04567 64.9169 7.00209 64.3394C6.89313 63.1408 6.77327 62.3781 6.44639 60.7982C6.31564 60.188 6.17399 59.2945 6.11951 58.8151C6.07593 58.3357 5.98876 57.6275 5.92338 57.2352C5.85801 56.8429 5.77084 55.5899 5.73815 54.4458C5.67278 52.4083 5.68367 52.3429 5.96697 51.3949C6.26116 50.4034 7.10015 48.4748 7.45972 47.9518C7.56868 47.7993 7.65585 47.5269 7.65585 47.3634C7.65585 47.1891 7.76481 46.9385 7.91735 46.7859C8.059 46.6225 8.3205 46.2738 8.49484 45.9905C8.65828 45.7181 9.21397 44.9772 9.71519 44.367C10.2164 43.746 10.7721 42.9941 10.9573 42.6999C11.1426 42.3949 11.5348 41.8719 11.8399 41.5341C12.145 41.2072 12.5155 40.7714 12.668 40.5752C12.9295 40.2375 13.5724 39.9215 14.03 39.9106C14.1499 39.9106 14.4985 40.183 14.8472 40.5316ZM58.9651 44.0728C59.6951 45.7072 60.5777 47.7666 60.6648 48.0826C60.7084 48.2351 60.9808 48.9216 61.2641 49.608C62.0377 51.4494 62.1031 51.7327 61.8634 52.0051C61.7653 52.1141 61.4929 52.2666 61.275 52.3429C61.0571 52.4083 60.5341 52.6371 60.0983 52.8332C59.6624 53.0402 59.2593 53.2037 59.1939 53.2037C59.0413 53.2037 58.9106 52.8441 58.8234 52.1686C58.6382 50.7848 57.2217 46.1322 56.7314 45.2823C56.3173 44.5632 56.3609 44.4869 57.3743 44.0293C58.5619 43.4954 58.7036 43.4954 58.9651 44.0728Z" fill="black"/>
<path d="M14.8472 40.5316C15.1741 40.8803 15.6317 41.5014 15.8605 41.9263C16.7213 43.5171 17.0373 43.9966 18.3666 45.7617C18.7044 46.2194 18.9877 46.6334 18.9877 46.6879C18.9877 46.7315 19.2928 47.1455 19.6741 47.614C20.3824 48.4857 20.6657 48.9107 21.047 49.6625C21.3194 50.1855 21.7662 50.4797 22.3001 50.4797C22.6051 50.4797 22.8013 50.3816 23.1608 50.0656C23.4115 49.8368 23.8146 49.5317 24.0652 49.3683C24.3049 49.2157 24.6972 48.8344 24.926 48.5293C25.3509 47.9736 29.2299 44.3017 31.2784 42.5147C32.5859 41.3815 33.9697 40.706 35.2009 40.597C36.2142 40.5207 36.661 40.6624 38.0121 41.5559C38.6549 41.9808 39.5048 42.5038 39.8971 42.7108C40.2893 42.9179 40.7143 43.1794 40.8341 43.2883C40.954 43.3973 41.4661 43.7351 41.9782 44.0511C42.5775 44.4106 43.2313 44.9445 43.8305 45.5547C44.3427 46.0777 45.3124 46.9712 45.9988 47.5378C46.6853 48.1044 47.3717 48.7581 47.5243 49.0087C47.6768 49.2484 48.0146 49.7279 48.2652 50.0656C48.5267 50.4034 48.8536 50.9482 48.9952 51.2751C49.1369 51.602 49.3112 51.8962 49.3766 51.9397C49.442 51.9833 49.6926 52.4301 49.9432 52.9422C50.1938 53.4543 50.5207 54.0536 50.6732 54.2715C50.8149 54.4894 51.2616 55.5027 51.643 56.527C52.1769 57.9434 52.3621 58.5427 52.3839 59.0875C52.4057 59.4798 52.5146 60.188 52.6127 60.6674C52.7108 61.1469 52.8306 61.8333 52.8851 62.1929C52.9396 62.5524 53.0377 63.021 53.0921 63.228C53.1466 63.435 53.2011 63.8382 53.2011 64.1106C53.2011 64.383 53.2774 65.0912 53.3645 65.6905C53.4517 66.2789 53.528 67.1397 53.528 67.5864C53.528 68.9811 53.2338 69.1336 51.218 68.8503C50.5316 68.7523 49.8996 68.6869 49.8124 68.7196C49.7253 68.7414 49.5182 68.7959 49.3548 68.8394C49.1369 68.883 48.9952 69.0138 48.8863 69.2753C48.6902 69.7547 48.6902 70.3758 48.8863 70.452C48.9626 70.4847 49.1914 70.8988 49.3766 71.3673C49.5727 71.8358 49.9432 72.7075 50.2047 73.3068C50.4662 73.9061 50.8367 74.854 51.0219 75.4097C51.2507 76.0635 51.4577 76.4666 51.5994 76.532C51.8718 76.6845 52.373 76.5865 52.7653 76.3032C53.1902 75.9981 54.0292 74.8976 54.6612 73.8298C55.1297 73.0344 55.2713 72.8818 55.9142 72.5005C57.5159 71.5307 58.867 71.1167 59.7823 71.3128C60.5995 71.4763 62.4082 72.4569 63.1056 73.0998L63.7048 73.6555L63.792 74.5707C64.0099 77.0332 64.0099 77.3601 63.8356 78.5805C63.5414 80.6616 63.0293 81.5006 61.3295 82.6773C60.9917 82.9171 60.5014 83.2657 60.2508 83.451C59.5752 83.9631 57.2108 84.8565 56.0885 85.02C53.5716 85.4013 52.7979 85.4231 51.7192 85.1725C50.6187 84.9219 49.9105 85.0963 48.7337 85.8917C48.0255 86.3711 45.7373 87.5261 45.4976 87.5261C45.4105 87.5261 44.6368 87.842 43.787 88.2125C42.2615 88.899 42.0218 88.9861 40.0169 89.5963C37.7288 90.2828 37.3692 90.3699 36.236 90.5225C35.5932 90.6096 34.7651 90.7404 34.4055 90.8167C33.9697 90.9038 32.6839 90.9474 30.5919 90.9474C27.65 90.9474 26.1681 90.8602 24.7626 90.5769C24.4902 90.5225 23.5858 90.3808 22.7468 90.2501C21.9078 90.1193 20.9054 89.9559 20.5131 89.8687C20.1209 89.7815 19.5652 89.6944 19.2601 89.6617C18.6608 89.6072 15.5663 88.583 14.6075 88.1362C14.4114 88.0382 14.0191 87.8965 13.7358 87.8094C13.1583 87.635 11.6438 86.7851 9.99849 85.6955C8.40767 84.6386 7.7975 84.1483 7.00209 83.3093C5.47665 81.6749 4.68124 80.3129 4.26719 78.5587C4.15823 78.0683 4.01659 77.4691 3.95121 77.2185C3.88583 76.9243 3.88583 76.3904 3.96211 75.693C4.06017 74.7451 4.12555 74.538 4.45243 74.0368C4.65945 73.7317 4.87737 73.4702 4.93185 73.4702C4.99722 73.4702 5.25873 73.2741 5.53113 73.0235C5.79263 72.7838 6.21758 72.5005 6.47908 72.4024C7.54689 71.9884 7.75391 71.6615 7.7757 70.3649C7.7866 69.7765 7.72122 69.1009 7.61226 68.6651C7.5251 68.2728 7.39434 67.423 7.33986 66.791C7.28538 66.159 7.20911 65.5815 7.16553 65.5162C7.12194 65.4508 7.04567 64.9169 7.00209 64.3394C6.89313 63.1408 6.77327 62.3781 6.44639 60.7982C6.31564 60.188 6.17399 59.2945 6.11951 58.8151C6.07593 58.3357 5.98876 57.6275 5.92338 57.2352C5.85801 56.8429 5.77084 55.5899 5.73815 54.4458C5.67278 52.4083 5.68367 52.3429 5.96697 51.3949C6.26116 50.4034 7.10015 48.4748 7.45972 47.9518C7.56868 47.7993 7.65585 47.5269 7.65585 47.3634C7.65585 47.1891 7.76481 46.9385 7.91735 46.7859C8.059 46.6225 8.3205 46.2738 8.49484 45.9905C8.65828 45.7181 9.21397 44.9772 9.71519 44.367C10.2164 43.746 10.7721 42.9941 10.9573 42.6999C11.1426 42.3949 11.5348 41.8719 11.8399 41.5341C12.145 41.2072 12.5155 40.7714 12.668 40.5752C12.9295 40.2375 13.5724 39.9215 14.03 39.9106C14.1499 39.9106 14.4985 40.183 14.8472 40.5316Z" fill="white"/>
<path d="M58.9651 44.0728C59.6951 45.7072 60.5777 47.7666 60.6648 48.0826C60.7084 48.2351 60.9808 48.9216 61.2641 49.608C62.0377 51.4494 62.1031 51.7327 61.8634 52.0051C61.7653 52.1141 61.4929 52.2666 61.275 52.3429C61.0571 52.4083 60.5341 52.6371 60.0983 52.8332C59.6624 53.0402 59.2593 53.2037 59.1939 53.2037C59.0413 53.2037 58.9106 52.8441 58.8234 52.1686C58.6382 50.7848 57.2217 46.1322 56.7314 45.2823C56.3173 44.5632 56.3609 44.4869 57.3743 44.0293C58.5619 43.4954 58.7036 43.4954 58.9651 44.0728Z" fill="white"/>
<path d="M30.1888 2.18864C29.7529 2.47194 25.6015 7.70201 24.4684 9.40178C23.2371 11.2432 21.7988 13.7929 20.0664 17.1597C19.064 19.121 18.1814 20.8099 18.1269 20.9189C18.0615 21.0278 17.7564 21.6489 17.4513 22.3135C16.5579 24.2312 15.6208 26.2361 14.7491 28.0557C14.4441 28.7095 14.1934 29.2652 14.1934 29.3088C14.1934 29.5703 13.2019 30.9432 12.3629 31.8475C11.8399 32.4141 11.1535 33.2095 10.8375 33.6018C9.98759 34.6914 8.69097 36.9469 7.84108 38.821C7.48151 39.6273 6.34833 42.6999 6.34833 42.8852C6.34833 42.9615 6.31564 43.0595 6.28295 43.1031C6.17399 43.2121 5.62919 44.8247 5.54202 45.3041C5.49844 45.5438 5.29142 46.0123 5.09529 46.3392C4.89916 46.6661 4.68124 47.1128 4.62676 47.3198C4.56139 47.5269 4.44153 47.9409 4.34347 48.246C4.2454 48.5402 4.16913 48.9107 4.16913 49.0632C4.16913 49.2157 4.03838 49.6298 3.87494 49.9894C3.59164 50.6213 3.58075 50.7303 3.53716 53.0402C3.50447 54.849 3.53716 55.7316 3.66791 56.6359C3.76598 57.2897 3.91852 58.4011 4.01659 59.0875C4.10375 59.774 4.27809 60.711 4.38705 61.1578C4.59407 61.9423 4.69214 62.5742 4.93185 64.6445C5.04081 65.5379 5.16066 66.2462 5.37858 67.2268C5.43306 67.4774 5.47665 67.837 5.47665 68.0222C5.47665 68.2075 5.55292 68.7196 5.64009 69.1663C5.75994 69.7547 5.78174 70.038 5.69457 70.1905C5.64009 70.3104 5.12798 70.7462 4.56139 71.1712C3.77687 71.7596 3.41731 72.13 2.99236 72.7511C2.50204 73.4702 2.42577 73.6773 2.21875 74.7233C2.08799 75.3661 1.98993 76.1942 2.00083 76.5647C2.01172 78.101 2.48025 80.4001 2.90519 81.0321C3.05774 81.2609 3.18849 81.5224 3.18849 81.6095C3.18849 82.0563 5.74905 85.1616 6.79506 85.9679C7.12194 86.2185 7.53599 86.5454 7.71033 86.6871C7.89556 86.8396 8.3314 87.112 8.69097 87.319C9.05053 87.5152 9.49727 87.7876 9.67161 87.9074C10.2927 88.3542 12.7225 89.5636 13.1583 89.6508C13.398 89.6944 13.6486 89.7706 13.714 89.8251C13.9319 90.0104 15.4683 90.5987 16.7976 91.0128C17.5494 91.2525 18.8133 91.5358 19.6305 91.6665C20.4477 91.7864 21.5047 91.9607 21.9841 92.0479C22.4635 92.1351 23.4223 92.2767 24.1088 92.3639C24.7952 92.4511 25.7323 92.6036 26.179 92.7017C26.811 92.8433 27.7372 92.8869 30.374 92.8978C33.9697 92.9196 34.3401 92.8869 37.6307 92.2549C39.5811 91.8845 42.9807 90.7513 44.8766 89.8578C45.3015 89.6508 45.6938 89.4873 45.7482 89.4873C45.8027 89.4873 46.086 89.3675 46.3911 89.2258C46.6853 89.0733 47.4916 88.7137 48.1671 88.4086C48.8427 88.1144 49.6708 87.6677 50.0195 87.428C50.7277 86.9268 50.804 86.9159 51.8609 87.1338C52.4384 87.2537 52.896 87.2646 53.9638 87.1883C56.7641 86.9813 57.1128 86.9159 58.7036 86.3493C60.5123 85.7064 61.0462 85.4449 61.7 84.911C61.9724 84.6931 62.4191 84.388 62.6915 84.2355C63.476 83.7778 64.631 82.3505 65.2956 81.0103C65.9167 79.7463 66.1673 78.0792 65.9385 76.5647C65.7751 75.4315 65.7751 74.9303 65.9603 74.6034C66.2763 74.0041 72.3127 71.8903 77.5536 70.5283C77.9786 70.4194 78.981 70.147 79.7873 69.929C80.5936 69.7002 81.4653 69.4823 81.7268 69.4278C82.4024 69.2971 82.5767 69.1663 82.8273 68.6433C83.0452 68.1966 83.0452 68.1421 82.8927 67.6191C82.7401 67.0852 82.2389 66.4968 81.9447 66.4968C81.8902 66.4968 81.6832 66.3878 81.498 66.2462C81.0404 65.9302 79.2425 64.8515 78.4362 64.4157C78.0766 64.2304 77.5427 63.9144 77.2377 63.7183C75.4616 62.5742 71.964 60.5585 68.7061 58.7933C68.2049 58.5318 67.769 58.2594 67.7254 58.194C67.6928 58.1178 67.6383 57.2352 67.6165 56.211C67.5947 55.1868 67.5293 53.901 67.464 53.3671C67.3986 52.8223 67.3005 52.016 67.2569 51.5693C67.148 50.556 66.7557 48.3223 66.5487 47.5922C66.4615 47.2872 66.3417 46.7097 66.2763 46.2956C66.1019 45.2169 64.9906 41.6866 64.5547 40.8367C64.4349 40.597 63.7375 39.1914 63.0184 37.7096C61.3731 34.3209 60.9481 33.6672 58.4639 30.856C54.2798 26.1053 48.9735 22.6186 43.994 21.3438C42.1961 20.8862 41.0412 20.7227 39.1235 20.6573L37.3038 20.592L37.1949 20.2542C37.1295 20.069 35.9309 16.0483 34.5145 11.3195C33.1089 6.59063 31.8776 2.60269 31.7796 2.46104C31.4745 1.98162 30.7009 1.85087 30.1888 2.18864ZM14.8472 40.5316C15.1741 40.8803 15.6317 41.5014 15.8605 41.9263C16.7213 43.5171 17.0373 43.9966 18.3666 45.7617C18.7044 46.2194 18.9877 46.6334 18.9877 46.6879C18.9877 46.7315 19.2928 47.1455 19.6741 47.614C20.3824 48.4857 20.6657 48.9107 21.047 49.6625C21.3194 50.1855 21.7662 50.4797 22.3001 50.4797C22.6051 50.4797 22.8013 50.3816 23.1608 50.0656C23.4115 49.8368 23.8146 49.5317 24.0652 49.3683C24.3049 49.2157 24.6972 48.8344 24.926 48.5293C25.3509 47.9736 29.2299 44.3017 31.2784 42.5147C32.5859 41.3815 33.9697 40.706 35.2009 40.597C36.2142 40.5207 36.661 40.6624 38.0121 41.5559C38.6549 41.9808 39.5048 42.5038 39.8971 42.7108C40.2893 42.9179 40.7143 43.1794 40.8341 43.2883C40.954 43.3973 41.4661 43.7351 41.9782 44.0511C42.5775 44.4106 43.2313 44.9445 43.8305 45.5547C44.3427 46.0777 45.3124 46.9712 45.9988 47.5378C46.6853 48.1044 47.3717 48.7581 47.5243 49.0087C47.6768 49.2484 48.0146 49.7279 48.2652 50.0656C48.5267 50.4034 48.8536 50.9482 48.9952 51.2751C49.1369 51.602 49.3112 51.8962 49.3766 51.9397C49.442 51.9833 49.6926 52.4301 49.9432 52.9422C50.1938 53.4543 50.5207 54.0536 50.6732 54.2715C50.8149 54.4894 51.2616 55.5027 51.643 56.527C52.1769 57.9434 52.3621 58.5427 52.3839 59.0875C52.4057 59.4798 52.5146 60.188 52.6127 60.6674C52.7108 61.1469 52.8306 61.8333 52.8851 62.1929C52.9396 62.5524 53.0377 63.021 53.0921 63.228C53.1466 63.435 53.2011 63.8382 53.2011 64.1106C53.2011 64.383 53.2774 65.0912 53.3645 65.6905C53.4517 66.2789 53.528 67.1397 53.528 67.5864C53.528 68.9811 53.2338 69.1336 51.218 68.8503C50.5316 68.7523 49.8996 68.6869 49.8124 68.7196C49.7253 68.7414 49.5182 68.7959 49.3548 68.8394C49.1369 68.883 48.9952 69.0138 48.8863 69.2753C48.6902 69.7547 48.6902 70.3758 48.8863 70.452C48.9626 70.4847 49.1914 70.8988 49.3766 71.3673C49.5727 71.8358 49.9432 72.7075 50.2047 73.3068C50.4662 73.9061 50.8367 74.854 51.0219 75.4097C51.2507 76.0635 51.4577 76.4666 51.5994 76.532C51.8718 76.6845 52.373 76.5865 52.7653 76.3032C53.1902 75.9981 54.0292 74.8976 54.6612 73.8298C55.1297 73.0344 55.2713 72.8818 55.9142 72.5005C57.5159 71.5307 58.867 71.1167 59.7823 71.3128C60.5995 71.4763 62.4082 72.4569 63.1056 73.0998L63.7048 73.6555L63.792 74.5707C64.0099 77.0332 64.0099 77.3601 63.8356 78.5805C63.5414 80.6616 63.0293 81.5006 61.3295 82.6773C60.9917 82.9171 60.5014 83.2657 60.2508 83.451C59.5752 83.9631 57.2108 84.8565 56.0885 85.02C53.5716 85.4013 52.7979 85.4231 51.7192 85.1725C50.6187 84.9219 49.9105 85.0963 48.7337 85.8917C48.0255 86.3711 45.7373 87.5261 45.4976 87.5261C45.4105 87.5261 44.6368 87.842 43.787 88.2125C42.2615 88.899 42.0218 88.9861 40.0169 89.5963C37.7288 90.2828 37.3692 90.3699 36.236 90.5225C35.5932 90.6096 34.7651 90.7404 34.4055 90.8167C33.9697 90.9038 32.6839 90.9474 30.5919 90.9474C27.65 90.9474 26.1681 90.8602 24.7626 90.5769C24.4902 90.5225 23.5858 90.3808 22.7468 90.2501C21.9078 90.1193 20.9054 89.9559 20.5131 89.8687C20.1209 89.7815 19.5652 89.6944 19.2601 89.6617C18.6608 89.6072 15.5663 88.583 14.6075 88.1362C14.4114 88.0382 14.0191 87.8965 13.7358 87.8094C13.1583 87.635 11.6438 86.7851 9.99849 85.6955C8.40767 84.6386 7.7975 84.1483 7.00209 83.3093C5.47665 81.6749 4.68124 80.3129 4.26719 78.5587C4.15823 78.0683 4.01659 77.4691 3.95121 77.2185C3.88583 76.9243 3.88583 76.3904 3.96211 75.693C4.06017 74.7451 4.12555 74.538 4.45243 74.0368C4.65945 73.7317 4.87737 73.4702 4.93185 73.4702C4.99722 73.4702 5.25873 73.2741 5.53113 73.0235C5.79263 72.7838 6.21758 72.5005 6.47908 72.4024C7.54689 71.9884 7.75391 71.6615 7.7757 70.3649C7.7866 69.7765 7.72122 69.1009 7.61226 68.6651C7.5251 68.2728 7.39434 67.423 7.33986 66.791C7.28538 66.159 7.20911 65.5815 7.16553 65.5162C7.12194 65.4508 7.04567 64.9169 7.00209 64.3394C6.89313 63.1408 6.77327 62.3781 6.44639 60.7982C6.31564 60.188 6.17399 59.2945 6.11951 58.8151C6.07593 58.3357 5.98876 57.6275 5.92338 57.2352C5.85801 56.8429 5.77084 55.5899 5.73815 54.4458C5.67278 52.4083 5.68367 52.3429 5.96697 51.3949C6.26116 50.4034 7.10015 48.4748 7.45972 47.9518C7.56868 47.7993 7.65585 47.5269 7.65585 47.3634C7.65585 47.1891 7.76481 46.9385 7.91735 46.7859C8.059 46.6225 8.3205 46.2738 8.49484 45.9905C8.65828 45.7181 9.21397 44.9772 9.71519 44.367C10.2164 43.746 10.7721 42.9941 10.9573 42.6999C11.1426 42.3949 11.5348 41.8719 11.8399 41.5341C12.145 41.2072 12.5155 40.7714 12.668 40.5752C12.9295 40.2375 13.5724 39.9215 14.03 39.9106C14.1499 39.9106 14.4985 40.183 14.8472 40.5316ZM58.9651 44.0728C59.6951 45.7072 60.5777 47.7666 60.6648 48.0826C60.7084 48.2351 60.9808 48.9216 61.2641 49.608C62.0377 51.4494 62.1031 51.7327 61.8634 52.0051C61.7653 52.1141 61.4929 52.2666 61.275 52.3429C61.0571 52.4083 60.5341 52.6371 60.0983 52.8332C59.6624 53.0402 59.2593 53.2037 59.1939 53.2037C59.0413 53.2037 58.9106 52.8441 58.8234 52.1686C58.6382 50.7848 57.2217 46.1322 56.7314 45.2823C56.3173 44.5632 56.3609 44.4869 57.3743 44.0293C58.5619 43.4954 58.7036 43.4954 58.9651 44.0728Z" stroke="white" stroke-width="4" mask="url(#path-1-outside-1_133_128)"/>
<path d="M14.8472 40.5316C15.1741 40.8803 15.6317 41.5014 15.8605 41.9263C16.7213 43.5171 17.0373 43.9966 18.3666 45.7617C18.7044 46.2194 18.9877 46.6334 18.9877 46.6879C18.9877 46.7315 19.2928 47.1455 19.6741 47.614C20.3824 48.4857 20.6657 48.9107 21.047 49.6625C21.3194 50.1855 21.7662 50.4797 22.3001 50.4797C22.6051 50.4797 22.8013 50.3816 23.1608 50.0656C23.4115 49.8368 23.8146 49.5317 24.0652 49.3683C24.3049 49.2157 24.6972 48.8344 24.926 48.5293C25.3509 47.9736 29.2299 44.3017 31.2784 42.5147C32.5859 41.3815 33.9697 40.706 35.2009 40.597C36.2142 40.5207 36.661 40.6624 38.0121 41.5559C38.6549 41.9808 39.5048 42.5038 39.8971 42.7108C40.2893 42.9179 40.7143 43.1794 40.8341 43.2883C40.954 43.3973 41.4661 43.7351 41.9782 44.0511C42.5775 44.4106 43.2313 44.9445 43.8305 45.5547C44.3427 46.0777 45.3124 46.9712 45.9988 47.5378C46.6853 48.1044 47.3717 48.7581 47.5243 49.0087C47.6768 49.2484 48.0146 49.7279 48.2652 50.0656C48.5267 50.4034 48.8536 50.9482 48.9952 51.2751C49.1369 51.602 49.3112 51.8962 49.3766 51.9397C49.442 51.9833 49.6926 52.4301 49.9432 52.9422C50.1938 53.4543 50.5207 54.0536 50.6732 54.2715C50.8149 54.4894 51.2616 55.5027 51.643 56.527C52.1769 57.9434 52.3621 58.5427 52.3839 59.0875C52.4057 59.4798 52.5146 60.188 52.6127 60.6674C52.7108 61.1469 52.8306 61.8333 52.8851 62.1929C52.9396 62.5524 53.0377 63.021 53.0921 63.228C53.1466 63.435 53.2011 63.8382 53.2011 64.1106C53.2011 64.383 53.2774 65.0912 53.3645 65.6905C53.4517 66.2789 53.528 67.1397 53.528 67.5864C53.528 68.9811 53.2338 69.1336 51.218 68.8503C50.5316 68.7523 49.8996 68.6869 49.8124 68.7196C49.7253 68.7414 49.5182 68.7959 49.3548 68.8394C49.1369 68.883 48.9952 69.0138 48.8863 69.2753C48.6902 69.7547 48.6902 70.3758 48.8863 70.452C48.9626 70.4847 49.1914 70.8988 49.3766 71.3673C49.5727 71.8358 49.9432 72.7075 50.2047 73.3068C50.4662 73.9061 50.8367 74.854 51.0219 75.4097C51.2507 76.0635 51.4577 76.4666 51.5994 76.532C51.8718 76.6845 52.373 76.5865 52.7653 76.3032C53.1902 75.9981 54.0292 74.8976 54.6612 73.8298C55.1297 73.0344 55.2713 72.8818 55.9142 72.5005C57.5159 71.5307 58.867 71.1167 59.7823 71.3128C60.5995 71.4763 62.4082 72.4569 63.1056 73.0998L63.7048 73.6555L63.792 74.5707C64.0099 77.0332 64.0099 77.3601 63.8356 78.5805C63.5414 80.6616 63.0293 81.5006 61.3295 82.6773C60.9917 82.9171 60.5014 83.2657 60.2508 83.451C59.5752 83.9631 57.2108 84.8565 56.0885 85.02C53.5716 85.4013 52.7979 85.4231 51.7192 85.1725C50.6187 84.9219 49.9105 85.0963 48.7337 85.8917C48.0255 86.3711 45.7373 87.5261 45.4976 87.5261C45.4105 87.5261 44.6368 87.842 43.787 88.2125C42.2615 88.899 42.0218 88.9861 40.0169 89.5963C37.7288 90.2828 37.3692 90.3699 36.236 90.5225C35.5932 90.6096 34.7651 90.7404 34.4055 90.8167C33.9697 90.9038 32.6839 90.9474 30.5919 90.9474C27.65 90.9474 26.1681 90.8602 24.7626 90.5769C24.4902 90.5225 23.5858 90.3808 22.7468 90.2501C21.9078 90.1193 20.9054 89.9559 20.5131 89.8687C20.1209 89.7815 19.5652 89.6944 19.2601 89.6617C18.6608 89.6072 15.5663 88.583 14.6075 88.1362C14.4114 88.0382 14.0191 87.8965 13.7358 87.8094C13.1583 87.635 11.6438 86.7851 9.99849 85.6955C8.40767 84.6386 7.7975 84.1483 7.00209 83.3093C5.47665 81.6749 4.68124 80.3129 4.26719 78.5587C4.15823 78.0683 4.01659 77.4691 3.95121 77.2185C3.88583 76.9243 3.88583 76.3904 3.96211 75.693C4.06017 74.7451 4.12555 74.538 4.45243 74.0368C4.65945 73.7317 4.87737 73.4702 4.93185 73.4702C4.99722 73.4702 5.25873 73.2741 5.53113 73.0235C5.79263 72.7838 6.21758 72.5005 6.47908 72.4024C7.54689 71.9884 7.75391 71.6615 7.7757 70.3649C7.7866 69.7765 7.72122 69.1009 7.61226 68.6651C7.5251 68.2728 7.39434 67.423 7.33986 66.791C7.28538 66.159 7.20911 65.5815 7.16553 65.5162C7.12194 65.4508 7.04567 64.9169 7.00209 64.3394C6.89313 63.1408 6.77327 62.3781 6.44639 60.7982C6.31564 60.188 6.17399 59.2945 6.11951 58.8151C6.07593 58.3357 5.98876 57.6275 5.92338 57.2352C5.85801 56.8429 5.77084 55.5899 5.73815 54.4458C5.67278 52.4083 5.68367 52.3429 5.96697 51.3949C6.26116 50.4034 7.10015 48.4748 7.45972 47.9518C7.56868 47.7993 7.65585 47.5269 7.65585 47.3634C7.65585 47.1891 7.76481 46.9385 7.91735 46.7859C8.059 46.6225 8.3205 46.2738 8.49484 45.9905C8.65828 45.7181 9.21397 44.9772 9.71519 44.367C10.2164 43.746 10.7721 42.9941 10.9573 42.6999C11.1426 42.3949 11.5348 41.8719 11.8399 41.5341C12.145 41.2072 12.5155 40.7714 12.668 40.5752C12.9295 40.2375 13.5724 39.9215 14.03 39.9106C14.1499 39.9106 14.4985 40.183 14.8472 40.5316Z" stroke="white" stroke-width="4" mask="url(#path-1-outside-1_133_128)"/>
<path d="M58.9651 44.0728C59.6951 45.7072 60.5777 47.7666 60.6648 48.0826C60.7084 48.2351 60.9808 48.9216 61.2641 49.608C62.0377 51.4494 62.1031 51.7327 61.8634 52.0051C61.7653 52.1141 61.4929 52.2666 61.275 52.3429C61.0571 52.4083 60.5341 52.6371 60.0983 52.8332C59.6624 53.0402 59.2593 53.2037 59.1939 53.2037C59.0413 53.2037 58.9106 52.8441 58.8234 52.1686C58.6382 50.7848 57.2217 46.1322 56.7314 45.2823C56.3173 44.5632 56.3609 44.4869 57.3743 44.0293C58.5619 43.4954 58.7036 43.4954 58.9651 44.0728Z" stroke="white" stroke-width="4" mask="url(#path-1-outside-1_133_128)"/>
<path d="M39.1017 47.1781C38.1537 47.3525 37.3801 47.712 36.3123 48.453C35.8438 48.7799 35.2118 49.1721 34.8958 49.3247C33.3595 50.0656 29.0991 53.0402 27.8352 54.2605C27.5301 54.5547 27.4756 54.6746 27.5083 55.0233C27.541 55.3937 27.5846 55.4482 27.9878 55.5899C28.2275 55.677 28.5543 55.7097 28.7069 55.677C28.8594 55.6334 29.3498 55.2739 29.7856 54.8598C30.2323 54.4567 30.8643 53.9228 31.1912 53.6722C31.5181 53.4215 32.0084 53.0075 32.2808 52.7678C32.5532 52.5172 33.2178 52.0487 33.7517 51.7109C34.9285 50.97 39.1997 48.8125 39.9624 48.5619C40.2675 48.4639 40.5944 48.3113 40.7034 48.2133C40.9213 48.0171 40.954 47.3961 40.7579 47.2435C40.5181 47.0474 39.8753 47.0256 39.1017 47.1781Z" fill="black"/>
<path d="M10.9568 47.6465C10.6953 47.7555 10.4883 48.0715 10.4883 48.3766C10.4883 48.856 13.1142 51.4274 15.1191 52.9202C15.8382 53.4541 16.6772 54.1188 16.9714 54.3912C17.2765 54.6744 17.7232 55.0558 17.9738 55.2519C18.7474 55.8512 19.2922 55.6769 19.3903 54.7943C19.4557 54.2931 19.4339 54.2604 18.9218 53.7374C18.6276 53.4323 18.0937 52.9856 17.7341 52.7459C16.8842 52.1684 14.6179 50.2398 13.4193 49.0739C12.1772 47.8753 11.4471 47.4504 10.9568 47.6465Z" fill="black"/>
<path d="M36.0289 53.3125C35.604 53.9554 35.7456 54.1842 36.8788 54.7181C37.38 54.9578 38.1101 55.3936 38.4914 55.6878C39.0907 56.1454 39.2868 56.3743 39.7663 57.2459C40.627 58.815 40.8014 59.3271 40.8994 60.5583C40.943 61.1576 41.0193 62.1927 41.0847 62.8574C41.1501 63.5765 41.1609 64.4918 41.1065 65.0911C41.0084 66.2787 40.3111 68.8938 39.7554 70.1686C39.5483 70.6371 39.3522 71.1819 39.3086 71.3671C39.2759 71.5633 38.9817 72.0972 38.6767 72.5657C38.3607 73.0233 38.0556 73.5028 37.9793 73.6226C37.805 73.9386 37.9248 74.4289 38.2408 74.6359C38.6113 74.8757 39.265 74.6686 39.6137 74.2001C40.213 73.4047 42.0871 69.8853 42.0871 69.5802C42.0871 69.5257 42.207 69.1879 42.3486 68.8284C42.8825 67.4991 43.1331 64.6879 42.9479 61.9203C42.7627 59.022 42.7082 58.6951 42.3159 57.8888C42.207 57.6818 42.0108 57.2677 41.8583 56.9735C41.7166 56.6793 41.4442 56.2871 41.259 56.1019C41.0738 55.9166 40.7796 55.5571 40.6161 55.2956C40.4418 55.0341 40.1694 54.7508 39.9951 54.6636C39.8316 54.5764 39.5265 54.3585 39.3195 54.1842C38.8183 53.7374 37.0423 52.8766 36.6391 52.8766C36.3776 52.8766 36.2578 52.9638 36.0289 53.3125Z" fill="black"/>
<path d="M11.3074 53.7159C11.1658 53.9447 10.9805 54.3042 10.9152 54.5113C10.8389 54.7183 10.6428 55.0779 10.4793 55.3067C10.3159 55.5355 10.098 55.9931 9.9999 56.3418C9.90183 56.6796 9.7275 57.2353 9.60764 57.5621C8.85582 59.7631 8.58342 62.0731 8.74686 65.0259C8.85582 67.0743 9.03015 68.0659 9.4442 69.0356C9.54226 69.2644 9.74929 69.831 9.89094 70.3105C10.0871 70.9206 10.3159 71.3456 10.6646 71.7814C11.1549 72.3807 11.1767 72.3916 11.667 72.3589C12.1028 72.3262 12.19 72.2826 12.2772 72.032C12.3643 71.7923 12.3098 71.5853 11.9939 70.8879C10.8934 68.5017 10.4466 65.8976 10.6101 62.8685C10.7844 59.7958 11.1331 57.9108 11.7542 56.6687C12.2336 55.7207 12.5169 54.9144 12.6149 54.2607C12.6803 53.8139 12.6694 53.7594 12.3643 53.5415C11.8849 53.2037 11.6234 53.2473 11.3074 53.7159Z" fill="black"/>
<path d="M16.7322 56.4286C16.2854 56.6574 16.0566 57.2349 15.6644 59.1962C15.3266 60.8851 15.2394 62.8246 15.4137 65.3524C15.5336 67.0413 15.7188 68.1309 16.0239 68.8283C16.1874 69.1878 16.3181 69.3077 16.6668 69.4275C17.2661 69.6237 17.7782 69.4057 18.1595 68.7629C18.6281 67.9566 18.9876 65.8537 18.9876 63.8706C18.9876 61.7677 18.8024 58.3463 18.6499 57.5836C18.4319 56.494 17.5929 55.9928 16.7322 56.4286Z" fill="black"/>
<path d="M30.4609 56.9627C30.2757 57.039 30.0469 57.2242 29.9488 57.3659C29.7745 57.6383 29.4476 59.0984 29.4476 59.6214C29.4476 59.7957 29.3822 60.2751 29.295 60.6892C29.2079 61.0923 29.1098 61.6044 29.0662 61.8115C29.0226 62.0185 28.9464 63.1408 28.881 64.3066C28.7611 66.573 28.7611 66.5185 29.3604 69.1336C29.6219 70.3103 29.927 70.6372 30.7442 70.6372C31.5723 70.6372 31.9755 70.0488 32.1716 68.5561C32.6946 64.6008 32.8253 62.0621 32.5965 60.2533C32.2696 57.6601 32.1934 57.4204 31.5396 57.0826C31.0384 56.832 30.8205 56.8102 30.4609 56.9627Z" fill="black"/>
<path d="M19.0863 70.2232C18.3454 70.7462 17.5717 71.5198 17.3429 71.9665C17.0705 72.5004 17.0814 73.2523 17.3756 74.1784C17.6698 75.1373 17.9749 75.4533 18.5306 75.4097C18.8902 75.377 18.9446 75.3334 19.0754 74.9411C19.1952 74.5925 19.2061 74.3637 19.1081 73.8298C19.01 73.2632 19.01 73.0779 19.1517 72.7511C19.3914 72.1736 19.9144 71.5634 20.3502 71.3564C21.0258 71.0295 21.102 70.5283 20.5463 70.0924C20.1432 69.7764 19.6638 69.82 19.0863 70.2232Z" fill="black"/>
<path d="M59.1389 75.9654C57.7551 76.4666 55.881 77.6325 55.6957 78.1228C55.6412 78.2645 55.5977 78.5587 55.5977 78.7548C55.5977 79.0599 55.663 79.1579 55.9354 79.3105C56.3713 79.5284 56.6546 79.4521 57.2974 78.9182C57.973 78.3516 59.8471 77.4146 60.5444 77.2947C60.8495 77.2402 61.1546 77.1095 61.2309 77.0005C61.4379 76.7172 61.4052 76.1506 61.1764 75.9436C60.904 75.693 59.858 75.7148 59.1389 75.9654Z" fill="black"/>
<path d="M19.4445 79.0054C19.2375 79.1688 19.1939 79.2887 19.2266 79.6265C19.2811 80.2911 19.6951 80.4001 22.5825 80.4873C25.4918 80.5635 26.3526 80.6616 27.8671 81.0865C28.5318 81.2718 29.2073 81.4243 29.3707 81.4243C29.7521 81.4243 30.2097 80.9885 30.2097 80.6071C30.2097 80.1277 29.8066 79.8553 28.5209 79.4848C26.7339 78.9618 25.5136 78.8311 22.4191 78.8202C19.9457 78.8093 19.6733 78.8311 19.4445 79.0054Z" fill="black"/>
</svg>
