<svg width="87" height="94" viewBox="0 0 87 94" fill="none" xmlns="http://www.w3.org/2000/svg">
<mask id="path-1-outside-1_133_118" maskUnits="userSpaceOnUse" x="0" y="-0.998535" width="87" height="95" fill="black">
<rect fill="white" y="-0.998535" width="87" height="95"/>
<path d="M48.2692 2.42506C47.9621 2.77056 47.7318 3.55755 47.2903 5.84174C45.3516 16.0534 45.0829 18.3568 45.7739 19.1822C45.8891 19.3165 45.9466 19.758 45.9082 20.1611L45.8507 20.8905L43.2594 20.8329C40.9368 20.7753 38.6142 20.9865 36.33 21.4855C36.0037 21.5623 35.7926 21.5047 35.735 21.332C35.6774 21.1976 35.8118 20.1995 36.0229 19.1054L36.4068 17.1283L35.5238 14.4026C35.044 12.9054 34.5065 11.1203 34.3337 10.4293C33.6235 7.64606 31.8 3.63433 31.1474 3.42319C30.9746 3.3656 30.514 3.44238 30.1301 3.59594C29.5926 3.82628 29.4199 4.01823 29.2471 4.70924C29.1127 5.16992 28.7288 6.53275 28.3641 7.74203C28.0186 8.9513 27.6731 10.2949 27.5964 10.7172C27.5388 11.1395 27.2508 12.3104 27.0013 13.3085C25.984 17.1475 25.6193 19.0094 25.6001 20.4298C25.6001 22.0614 25.984 23.6162 26.675 24.6143C26.9245 24.9982 27.1357 25.4781 27.1357 25.7084C27.1357 25.958 26.5214 26.7449 25.5809 27.7239C24.7171 28.6068 23.6998 29.8161 23.2967 30.392C22.2602 31.9084 22.1066 32.0235 21.3964 31.6588C21.0893 31.4861 20.7246 31.3517 20.6094 31.3517C20.4943 31.3517 18.1141 30.2192 15.3308 28.8564C12.5476 27.4744 10.1482 26.361 9.97547 26.361C9.82191 26.361 9.55318 26.6106 9.38042 26.9369C9.1117 27.4552 9.1117 27.5319 9.4572 27.8774C10.1098 28.5301 12.394 29.7777 15.7147 31.3133C17.519 32.1387 19.4577 33.0601 20.0336 33.3864C20.9741 33.8854 21.0893 34.0198 21.0701 34.5381C21.0509 34.8644 20.8014 35.6706 20.5134 36.3232L19.976 37.5133L19.189 37.3981C18.7475 37.3213 17.02 36.9374 15.3308 36.5343C11.8758 35.7089 2.50866 34.1158 2.20155 34.3269C1.93282 34.4805 1.93282 35.0563 2.20155 35.6514C2.47027 36.208 3.43002 36.5151 7.36496 37.2061C8.90055 37.4749 11.012 37.878 12.0677 38.0891C13.1234 38.3003 14.9277 38.6458 16.0794 38.8569C18.7283 39.356 19.0738 39.4903 19.0738 40.0278C19.0738 40.642 17.9029 44.2699 17.615 44.5194C17.4807 44.6154 16.5785 44.7305 15.5804 44.7497C14.6014 44.7881 12.7587 44.8841 11.4919 44.9801C10.225 45.0568 7.69128 45.1528 5.84857 45.1528C2.16316 45.1528 2.14396 45.172 2.22074 46.3237L2.27833 46.9955L4.58171 47.1683C6.69314 47.3218 11.703 47.1299 15.5804 46.7652C16.7321 46.65 16.7704 46.6692 16.7513 47.1107C16.7513 47.5714 16.2138 49.6252 15.446 52.1781C14.6398 54.8462 13.373 60.9502 13.2002 62.9848C13.085 64.578 13.5073 67.1117 14.2943 69.4919L14.6782 70.6628L14.1024 71.7569C13.4305 73.0238 13.1618 74.4058 13.5073 74.8281C13.8336 75.212 14.4095 75.1928 14.563 74.7705C14.7358 74.2522 15.542 73.4269 15.9259 73.3501C16.329 73.2925 16.3482 73.5228 16.0986 75.4231C15.9451 76.4596 16.1946 77.2274 16.6745 77.2274C16.8088 77.2274 17.1927 77.0163 17.4999 76.7476C18.4212 75.9798 18.6899 76.1141 19.7457 77.8225C22.145 81.719 24.9283 84.8862 27.4236 86.5178C28.3258 87.1128 29.0552 87.6694 29.0552 87.7654C29.0552 87.8614 28.3066 88.0725 27.4044 88.2453C25.1778 88.6484 24.1221 89.1474 23.7958 89.9152C23.4119 90.8366 23.719 91.566 24.602 91.8155C25.6385 92.1035 31.1666 92.0459 36.5412 91.7196C39.1325 91.5468 42.7987 91.3357 44.699 91.2589C48.4036 91.0861 48.6339 91.0477 56.0047 89.205L60.2084 88.1685H63.8746C68.2511 88.1685 71.6678 87.8998 72.4548 87.4775C73.9903 86.6905 73.5105 85.4044 71.2839 84.272C70.4969 83.8689 69.8442 83.4466 69.8442 83.3314C69.8442 83.197 70.2473 82.8899 70.7656 82.6404C71.3031 82.3525 72.4164 81.3927 73.4529 80.2986C74.8349 78.859 75.4299 78.0528 76.121 76.7284C76.6008 75.7878 77.0999 74.7129 77.2151 74.3482C77.6374 73.0046 78.194 69.0312 78.194 67.3421C78.194 65.2498 78.3668 64.1749 78.6547 64.1749C78.7891 64.1749 79.1729 64.3861 79.5377 64.6548C80.3246 65.2306 80.9773 65.269 81.2652 64.77C81.6107 64.0981 81.4763 63.4647 80.9197 62.9848C80.2863 62.4474 80.0175 61.6988 80.4014 61.5644C80.5358 61.5068 80.9197 61.6028 81.246 61.7564C81.9562 62.1403 82.7048 61.9099 82.8584 61.2765C83.0119 60.6815 82.7432 60.2592 81.7451 59.5682C80.4974 58.7044 80.3438 58.3589 80.1327 56.1131C79.7104 51.4871 78.7507 48.7806 75.7947 44.0203C75.1228 42.907 74.547 41.9089 74.547 41.7745C74.547 41.525 75.5451 41.4098 79.6528 41.1411C82.7624 40.9491 83.2807 40.834 83.8181 40.2197C84.202 39.7975 84.106 38.8761 83.6454 38.7033C83.4918 38.6458 82.4937 38.7033 81.4187 38.8377C78.4052 39.164 73.3569 39.3752 72.8195 39.1832C72.3588 39.0105 71.6294 38.2043 70.1706 36.2272C69.825 35.7665 69.5755 35.3826 69.5947 35.3826C69.6331 35.3634 70.9959 35.0371 72.6083 34.6148C75.1228 33.9814 75.833 33.7127 77.1191 32.9257C78.7507 31.9276 81.0349 30.987 82.8008 30.5839C84.4323 30.2 84.5667 30.104 84.4899 29.1827L84.4323 28.3765L83.4726 28.4341C82.0906 28.5109 79.2113 29.509 76.6584 30.7951C74.1247 32.0619 73.165 32.4074 71.3414 32.6954C70.6312 32.8105 69.5371 33.0409 68.9229 33.1944C67.8672 33.4631 67.7904 33.4631 67.3489 33.0984C66.7155 32.6186 65.2567 30.987 64.9879 30.4688C64.7384 29.9889 64.8728 29.7585 67.0226 27.244C69.6715 24.1344 70.4393 23.405 72.0708 22.4453C75.6411 20.3723 78.194 18.5103 78.194 17.9921C78.194 17.8961 78.0213 17.6082 77.8293 17.3587C77.3686 16.7444 76.8696 16.8788 75.2188 18.1073C74.5086 18.6447 72.8578 19.662 71.591 20.4106C69.134 21.8119 67.944 22.8676 65.8709 25.4973C65.2759 26.2267 64.4505 27.1864 64.0282 27.5895L63.2412 28.3381L62.7038 27.9926C62.4158 27.8007 61.3985 26.8793 60.4772 25.9388C58.6344 24.0961 57.905 23.5586 55.7936 22.4069C55.0258 22.0038 54.354 21.5623 54.3156 21.428C54.258 21.3128 54.5843 20.6218 55.0258 19.8924C56.2351 17.9345 56.1775 17.1091 54.6035 12.6559C53.0487 8.2219 51.0525 3.71111 50.2079 2.75137C49.4593 1.8684 48.9026 1.77243 48.2692 2.42506ZM55.8704 30.7951C57.0797 31.2557 58.2506 32.9449 58.2697 34.2693C58.2889 35.2291 57.6939 36.5151 57.0029 37.0718C55.7936 38.0123 53.8165 37.7436 52.7992 36.4767C51.206 34.4997 51.3404 32.0427 53.0871 30.9678C53.7781 30.5455 55.0258 30.4688 55.8704 30.7951ZM32.587 33.0793C33.2972 33.5015 33.9499 34.5956 34.1418 35.5938C34.5065 37.5133 31.9536 40.0278 30.0149 39.7015C29.1127 39.5479 27.9802 38.473 27.6923 37.5133C27.2316 35.9777 28.0762 33.943 29.535 33.0601C30.322 32.5802 31.8 32.5802 32.587 33.0793ZM44.008 34.634C45.0637 34.8644 45.8891 35.4018 46.1386 36.0353C46.3689 36.6495 46.177 36.8798 45.3132 37.0142C43.9888 37.2253 43.8352 37.3021 43.3361 38.0891C42.7795 38.9913 42.3188 39.0489 41.8581 38.2619C41.5126 37.686 40.6489 37.1102 40.1306 37.1102C39.977 37.1102 39.7083 36.9374 39.5356 36.7455C39.2284 36.4192 39.2284 36.3232 39.4972 35.8241C39.6507 35.517 39.9195 35.1523 40.073 34.9987C40.7448 34.4613 42.4532 34.2885 44.008 34.634ZM56.5614 50.8537C61.5713 51.4679 66.0053 53.0803 69.921 55.6908C71.5142 56.7657 75.0844 60.336 75.6795 61.4493C75.8906 61.8524 75.9674 62.9465 75.9674 66.3823C75.9866 71.5074 75.7755 72.8318 74.4894 75.4615C72.0708 80.4906 64.4313 85.1549 55.1602 87.2855C54.0469 87.5351 52.2809 87.9574 51.2252 88.2453C49.4977 88.6868 48.0389 88.8787 43.7392 89.2434C40.8024 89.5121 35.8885 88.5908 32.7214 87.228C29.0168 85.6156 25.4273 82.6788 22.9128 79.1469C20.4751 75.7302 19.2658 72.1792 18.7475 66.8238C18.6515 65.7489 18.6515 65.7489 19.7265 64.3285C24.8515 57.6295 29.7078 54.4239 38.5566 51.9286C40.3417 51.4103 43.4705 50.9305 47.6742 50.489C48.9218 50.3546 54.2772 50.585 56.5614 50.8537Z"/>
<path d="M56.5614 50.8537C61.5713 51.4679 66.0053 53.0803 69.921 55.6908C71.5142 56.7657 75.0844 60.336 75.6795 61.4493C75.8906 61.8524 75.9674 62.9465 75.9674 66.3823C75.9866 71.5074 75.7755 72.8318 74.4894 75.4615C72.0708 80.4906 64.4313 85.1549 55.1602 87.2855C54.0469 87.5351 52.2809 87.9574 51.2252 88.2453C49.4977 88.6868 48.0389 88.8787 43.7392 89.2434C40.8024 89.5121 35.8885 88.5908 32.7214 87.228C29.0168 85.6156 25.4273 82.6788 22.9128 79.1469C20.4751 75.7302 19.2658 72.1792 18.7475 66.8238C18.6515 65.7489 18.6515 65.7489 19.7265 64.3285C24.8515 57.6295 29.7078 54.4239 38.5566 51.9286C40.3417 51.4103 43.4705 50.9305 47.6742 50.489C48.9218 50.3546 54.2772 50.585 56.5614 50.8537Z"/>
<path d="M55.8704 30.7951C57.0797 31.2557 58.2506 32.9449 58.2697 34.2693C58.2889 35.2291 57.6939 36.5151 57.0029 37.0718C55.7936 38.0123 53.8165 37.7436 52.7992 36.4767C51.206 34.4997 51.3404 32.0427 53.0871 30.9678C53.7781 30.5455 55.0258 30.4688 55.8704 30.7951Z"/>
<path d="M44.008 34.634C45.0637 34.8644 45.8891 35.4018 46.1386 36.0353C46.3689 36.6495 46.177 36.8798 45.3132 37.0142C43.9888 37.2253 43.8352 37.3021 43.3361 38.0891C42.7795 38.9913 42.3188 39.0489 41.8581 38.2619C41.5126 37.686 40.6489 37.1102 40.1306 37.1102C39.977 37.1102 39.7083 36.9374 39.5356 36.7455C39.2284 36.4192 39.2284 36.3232 39.4972 35.8241C39.6507 35.517 39.9195 35.1523 40.073 34.9987C40.7448 34.4613 42.4532 34.2885 44.008 34.634Z"/>
<path d="M32.587 33.0793C33.2972 33.5015 33.9499 34.5956 34.1418 35.5938C34.5065 37.5133 31.9536 40.0278 30.0149 39.7015C29.1127 39.5479 27.9802 38.473 27.6923 37.5133C27.2316 35.9777 28.0762 33.943 29.535 33.0601C30.322 32.5802 31.8 32.5802 32.587 33.0793Z"/>
</mask>
<path d="M48.2692 2.42506C47.9621 2.77056 47.7318 3.55755 47.2903 5.84174C45.3516 16.0534 45.0829 18.3568 45.7739 19.1822C45.8891 19.3165 45.9466 19.758 45.9082 20.1611L45.8507 20.8905L43.2594 20.8329C40.9368 20.7753 38.6142 20.9865 36.33 21.4855C36.0037 21.5623 35.7926 21.5047 35.735 21.332C35.6774 21.1976 35.8118 20.1995 36.0229 19.1054L36.4068 17.1283L35.5238 14.4026C35.044 12.9054 34.5065 11.1203 34.3337 10.4293C33.6235 7.64606 31.8 3.63433 31.1474 3.42319C30.9746 3.3656 30.514 3.44238 30.1301 3.59594C29.5926 3.82628 29.4199 4.01823 29.2471 4.70924C29.1127 5.16992 28.7288 6.53275 28.3641 7.74203C28.0186 8.9513 27.6731 10.2949 27.5964 10.7172C27.5388 11.1395 27.2508 12.3104 27.0013 13.3085C25.984 17.1475 25.6193 19.0094 25.6001 20.4298C25.6001 22.0614 25.984 23.6162 26.675 24.6143C26.9245 24.9982 27.1357 25.4781 27.1357 25.7084C27.1357 25.958 26.5214 26.7449 25.5809 27.7239C24.7171 28.6068 23.6998 29.8161 23.2967 30.392C22.2602 31.9084 22.1066 32.0235 21.3964 31.6588C21.0893 31.4861 20.7246 31.3517 20.6094 31.3517C20.4943 31.3517 18.1141 30.2192 15.3308 28.8564C12.5476 27.4744 10.1482 26.361 9.97547 26.361C9.82191 26.361 9.55318 26.6106 9.38042 26.9369C9.1117 27.4552 9.1117 27.5319 9.4572 27.8774C10.1098 28.5301 12.394 29.7777 15.7147 31.3133C17.519 32.1387 19.4577 33.0601 20.0336 33.3864C20.9741 33.8854 21.0893 34.0198 21.0701 34.5381C21.0509 34.8644 20.8014 35.6706 20.5134 36.3232L19.976 37.5133L19.189 37.3981C18.7475 37.3213 17.02 36.9374 15.3308 36.5343C11.8758 35.7089 2.50866 34.1158 2.20155 34.3269C1.93282 34.4805 1.93282 35.0563 2.20155 35.6514C2.47027 36.208 3.43002 36.5151 7.36496 37.2061C8.90055 37.4749 11.012 37.878 12.0677 38.0891C13.1234 38.3003 14.9277 38.6458 16.0794 38.8569C18.7283 39.356 19.0738 39.4903 19.0738 40.0278C19.0738 40.642 17.9029 44.2699 17.615 44.5194C17.4807 44.6154 16.5785 44.7305 15.5804 44.7497C14.6014 44.7881 12.7587 44.8841 11.4919 44.9801C10.225 45.0568 7.69128 45.1528 5.84857 45.1528C2.16316 45.1528 2.14396 45.172 2.22074 46.3237L2.27833 46.9955L4.58171 47.1683C6.69314 47.3218 11.703 47.1299 15.5804 46.7652C16.7321 46.65 16.7704 46.6692 16.7513 47.1107C16.7513 47.5714 16.2138 49.6252 15.446 52.1781C14.6398 54.8462 13.373 60.9502 13.2002 62.9848C13.085 64.578 13.5073 67.1117 14.2943 69.4919L14.6782 70.6628L14.1024 71.7569C13.4305 73.0238 13.1618 74.4058 13.5073 74.8281C13.8336 75.212 14.4095 75.1928 14.563 74.7705C14.7358 74.2522 15.542 73.4269 15.9259 73.3501C16.329 73.2925 16.3482 73.5228 16.0986 75.4231C15.9451 76.4596 16.1946 77.2274 16.6745 77.2274C16.8088 77.2274 17.1927 77.0163 17.4999 76.7476C18.4212 75.9798 18.6899 76.1141 19.7457 77.8225C22.145 81.719 24.9283 84.8862 27.4236 86.5178C28.3258 87.1128 29.0552 87.6694 29.0552 87.7654C29.0552 87.8614 28.3066 88.0725 27.4044 88.2453C25.1778 88.6484 24.1221 89.1474 23.7958 89.9152C23.4119 90.8366 23.719 91.566 24.602 91.8155C25.6385 92.1035 31.1666 92.0459 36.5412 91.7196C39.1325 91.5468 42.7987 91.3357 44.699 91.2589C48.4036 91.0861 48.6339 91.0477 56.0047 89.205L60.2084 88.1685H63.8746C68.2511 88.1685 71.6678 87.8998 72.4548 87.4775C73.9903 86.6905 73.5105 85.4044 71.2839 84.272C70.4969 83.8689 69.8442 83.4466 69.8442 83.3314C69.8442 83.197 70.2473 82.8899 70.7656 82.6404C71.3031 82.3525 72.4164 81.3927 73.4529 80.2986C74.8349 78.859 75.4299 78.0528 76.121 76.7284C76.6008 75.7878 77.0999 74.7129 77.2151 74.3482C77.6374 73.0046 78.194 69.0312 78.194 67.3421C78.194 65.2498 78.3668 64.1749 78.6547 64.1749C78.7891 64.1749 79.1729 64.3861 79.5377 64.6548C80.3246 65.2306 80.9773 65.269 81.2652 64.77C81.6107 64.0981 81.4763 63.4647 80.9197 62.9848C80.2863 62.4474 80.0175 61.6988 80.4014 61.5644C80.5358 61.5068 80.9197 61.6028 81.246 61.7564C81.9562 62.1403 82.7048 61.9099 82.8584 61.2765C83.0119 60.6815 82.7432 60.2592 81.7451 59.5682C80.4974 58.7044 80.3438 58.3589 80.1327 56.1131C79.7104 51.4871 78.7507 48.7806 75.7947 44.0203C75.1228 42.907 74.547 41.9089 74.547 41.7745C74.547 41.525 75.5451 41.4098 79.6528 41.1411C82.7624 40.9491 83.2807 40.834 83.8181 40.2197C84.202 39.7975 84.106 38.8761 83.6454 38.7033C83.4918 38.6458 82.4937 38.7033 81.4187 38.8377C78.4052 39.164 73.3569 39.3752 72.8195 39.1832C72.3588 39.0105 71.6294 38.2043 70.1706 36.2272C69.825 35.7665 69.5755 35.3826 69.5947 35.3826C69.6331 35.3634 70.9959 35.0371 72.6083 34.6148C75.1228 33.9814 75.833 33.7127 77.1191 32.9257C78.7507 31.9276 81.0349 30.987 82.8008 30.5839C84.4323 30.2 84.5667 30.104 84.4899 29.1827L84.4323 28.3765L83.4726 28.4341C82.0906 28.5109 79.2113 29.509 76.6584 30.7951C74.1247 32.0619 73.165 32.4074 71.3414 32.6954C70.6312 32.8105 69.5371 33.0409 68.9229 33.1944C67.8672 33.4631 67.7904 33.4631 67.3489 33.0984C66.7155 32.6186 65.2567 30.987 64.9879 30.4688C64.7384 29.9889 64.8728 29.7585 67.0226 27.244C69.6715 24.1344 70.4393 23.405 72.0708 22.4453C75.6411 20.3723 78.194 18.5103 78.194 17.9921C78.194 17.8961 78.0213 17.6082 77.8293 17.3587C77.3686 16.7444 76.8696 16.8788 75.2188 18.1073C74.5086 18.6447 72.8578 19.662 71.591 20.4106C69.134 21.8119 67.944 22.8676 65.8709 25.4973C65.2759 26.2267 64.4505 27.1864 64.0282 27.5895L63.2412 28.3381L62.7038 27.9926C62.4158 27.8007 61.3985 26.8793 60.4772 25.9388C58.6344 24.0961 57.905 23.5586 55.7936 22.4069C55.0258 22.0038 54.354 21.5623 54.3156 21.428C54.258 21.3128 54.5843 20.6218 55.0258 19.8924C56.2351 17.9345 56.1775 17.1091 54.6035 12.6559C53.0487 8.2219 51.0525 3.71111 50.2079 2.75137C49.4593 1.8684 48.9026 1.77243 48.2692 2.42506ZM55.8704 30.7951C57.0797 31.2557 58.2506 32.9449 58.2697 34.2693C58.2889 35.2291 57.6939 36.5151 57.0029 37.0718C55.7936 38.0123 53.8165 37.7436 52.7992 36.4767C51.206 34.4997 51.3404 32.0427 53.0871 30.9678C53.7781 30.5455 55.0258 30.4688 55.8704 30.7951ZM32.587 33.0793C33.2972 33.5015 33.9499 34.5956 34.1418 35.5938C34.5065 37.5133 31.9536 40.0278 30.0149 39.7015C29.1127 39.5479 27.9802 38.473 27.6923 37.5133C27.2316 35.9777 28.0762 33.943 29.535 33.0601C30.322 32.5802 31.8 32.5802 32.587 33.0793ZM44.008 34.634C45.0637 34.8644 45.8891 35.4018 46.1386 36.0353C46.3689 36.6495 46.177 36.8798 45.3132 37.0142C43.9888 37.2253 43.8352 37.3021 43.3361 38.0891C42.7795 38.9913 42.3188 39.0489 41.8581 38.2619C41.5126 37.686 40.6489 37.1102 40.1306 37.1102C39.977 37.1102 39.7083 36.9374 39.5356 36.7455C39.2284 36.4192 39.2284 36.3232 39.4972 35.8241C39.6507 35.517 39.9195 35.1523 40.073 34.9987C40.7448 34.4613 42.4532 34.2885 44.008 34.634ZM56.5614 50.8537C61.5713 51.4679 66.0053 53.0803 69.921 55.6908C71.5142 56.7657 75.0844 60.336 75.6795 61.4493C75.8906 61.8524 75.9674 62.9465 75.9674 66.3823C75.9866 71.5074 75.7755 72.8318 74.4894 75.4615C72.0708 80.4906 64.4313 85.1549 55.1602 87.2855C54.0469 87.5351 52.2809 87.9574 51.2252 88.2453C49.4977 88.6868 48.0389 88.8787 43.7392 89.2434C40.8024 89.5121 35.8885 88.5908 32.7214 87.228C29.0168 85.6156 25.4273 82.6788 22.9128 79.1469C20.4751 75.7302 19.2658 72.1792 18.7475 66.8238C18.6515 65.7489 18.6515 65.7489 19.7265 64.3285C24.8515 57.6295 29.7078 54.4239 38.5566 51.9286C40.3417 51.4103 43.4705 50.9305 47.6742 50.489C48.9218 50.3546 54.2772 50.585 56.5614 50.8537Z" fill="black"/>
<path d="M56.5614 50.8537C61.5713 51.4679 66.0053 53.0803 69.921 55.6908C71.5142 56.7657 75.0844 60.336 75.6795 61.4493C75.8906 61.8524 75.9674 62.9465 75.9674 66.3823C75.9866 71.5074 75.7755 72.8318 74.4894 75.4615C72.0708 80.4906 64.4313 85.1549 55.1602 87.2855C54.0469 87.5351 52.2809 87.9574 51.2252 88.2453C49.4977 88.6868 48.0389 88.8787 43.7392 89.2434C40.8024 89.5121 35.8885 88.5908 32.7214 87.228C29.0168 85.6156 25.4273 82.6788 22.9128 79.1469C20.4751 75.7302 19.2658 72.1792 18.7475 66.8238C18.6515 65.7489 18.6515 65.7489 19.7265 64.3285C24.8515 57.6295 29.7078 54.4239 38.5566 51.9286C40.3417 51.4103 43.4705 50.9305 47.6742 50.489C48.9218 50.3546 54.2772 50.585 56.5614 50.8537Z" fill="white"/>
<path d="M55.8704 30.7951C57.0797 31.2557 58.2506 32.9449 58.2697 34.2693C58.2889 35.2291 57.6939 36.5151 57.0029 37.0718C55.7936 38.0123 53.8165 37.7436 52.7992 36.4767C51.206 34.4997 51.3404 32.0427 53.0871 30.9678C53.7781 30.5455 55.0258 30.4688 55.8704 30.7951Z" fill="white"/>
<path d="M44.008 34.634C45.0637 34.8644 45.8891 35.4018 46.1386 36.0353C46.3689 36.6495 46.177 36.8798 45.3132 37.0142C43.9888 37.2253 43.8352 37.3021 43.3361 38.0891C42.7795 38.9913 42.3188 39.0489 41.8581 38.2619C41.5126 37.686 40.6489 37.1102 40.1306 37.1102C39.977 37.1102 39.7083 36.9374 39.5356 36.7455C39.2284 36.4192 39.2284 36.3232 39.4972 35.8241C39.6507 35.517 39.9195 35.1523 40.073 34.9987C40.7448 34.4613 42.4532 34.2885 44.008 34.634Z" fill="white"/>
<path d="M32.587 33.0793C33.2972 33.5015 33.9499 34.5956 34.1418 35.5938C34.5065 37.5133 31.9536 40.0278 30.0149 39.7015C29.1127 39.5479 27.9802 38.473 27.6923 37.5133C27.2316 35.9777 28.0762 33.943 29.535 33.0601C30.322 32.5802 31.8 32.5802 32.587 33.0793Z" fill="white"/>
<path d="M48.2692 2.42506C47.9621 2.77056 47.7318 3.55755 47.2903 5.84174C45.3516 16.0534 45.0829 18.3568 45.7739 19.1822C45.8891 19.3165 45.9466 19.758 45.9082 20.1611L45.8507 20.8905L43.2594 20.8329C40.9368 20.7753 38.6142 20.9865 36.33 21.4855C36.0037 21.5623 35.7926 21.5047 35.735 21.332C35.6774 21.1976 35.8118 20.1995 36.0229 19.1054L36.4068 17.1283L35.5238 14.4026C35.044 12.9054 34.5065 11.1203 34.3337 10.4293C33.6235 7.64606 31.8 3.63433 31.1474 3.42319C30.9746 3.3656 30.514 3.44238 30.1301 3.59594C29.5926 3.82628 29.4199 4.01823 29.2471 4.70924C29.1127 5.16992 28.7288 6.53275 28.3641 7.74203C28.0186 8.9513 27.6731 10.2949 27.5964 10.7172C27.5388 11.1395 27.2508 12.3104 27.0013 13.3085C25.984 17.1475 25.6193 19.0094 25.6001 20.4298C25.6001 22.0614 25.984 23.6162 26.675 24.6143C26.9245 24.9982 27.1357 25.4781 27.1357 25.7084C27.1357 25.958 26.5214 26.7449 25.5809 27.7239C24.7171 28.6068 23.6998 29.8161 23.2967 30.392C22.2602 31.9084 22.1066 32.0235 21.3964 31.6588C21.0893 31.4861 20.7246 31.3517 20.6094 31.3517C20.4943 31.3517 18.1141 30.2192 15.3308 28.8564C12.5476 27.4744 10.1482 26.361 9.97547 26.361C9.82191 26.361 9.55318 26.6106 9.38042 26.9369C9.1117 27.4552 9.1117 27.5319 9.4572 27.8774C10.1098 28.5301 12.394 29.7777 15.7147 31.3133C17.519 32.1387 19.4577 33.0601 20.0336 33.3864C20.9741 33.8854 21.0893 34.0198 21.0701 34.5381C21.0509 34.8644 20.8014 35.6706 20.5134 36.3232L19.976 37.5133L19.189 37.3981C18.7475 37.3213 17.02 36.9374 15.3308 36.5343C11.8758 35.7089 2.50866 34.1158 2.20155 34.3269C1.93282 34.4805 1.93282 35.0563 2.20155 35.6514C2.47027 36.208 3.43002 36.5151 7.36496 37.2061C8.90055 37.4749 11.012 37.878 12.0677 38.0891C13.1234 38.3003 14.9277 38.6458 16.0794 38.8569C18.7283 39.356 19.0738 39.4903 19.0738 40.0278C19.0738 40.642 17.9029 44.2699 17.615 44.5194C17.4807 44.6154 16.5785 44.7305 15.5804 44.7497C14.6014 44.7881 12.7587 44.8841 11.4919 44.9801C10.225 45.0568 7.69128 45.1528 5.84857 45.1528C2.16316 45.1528 2.14396 45.172 2.22074 46.3237L2.27833 46.9955L4.58171 47.1683C6.69314 47.3218 11.703 47.1299 15.5804 46.7652C16.7321 46.65 16.7704 46.6692 16.7513 47.1107C16.7513 47.5714 16.2138 49.6252 15.446 52.1781C14.6398 54.8462 13.373 60.9502 13.2002 62.9848C13.085 64.578 13.5073 67.1117 14.2943 69.4919L14.6782 70.6628L14.1024 71.7569C13.4305 73.0238 13.1618 74.4058 13.5073 74.8281C13.8336 75.212 14.4095 75.1928 14.563 74.7705C14.7358 74.2522 15.542 73.4269 15.9259 73.3501C16.329 73.2925 16.3482 73.5228 16.0986 75.4231C15.9451 76.4596 16.1946 77.2274 16.6745 77.2274C16.8088 77.2274 17.1927 77.0163 17.4999 76.7476C18.4212 75.9798 18.6899 76.1141 19.7457 77.8225C22.145 81.719 24.9283 84.8862 27.4236 86.5178C28.3258 87.1128 29.0552 87.6694 29.0552 87.7654C29.0552 87.8614 28.3066 88.0725 27.4044 88.2453C25.1778 88.6484 24.1221 89.1474 23.7958 89.9152C23.4119 90.8366 23.719 91.566 24.602 91.8155C25.6385 92.1035 31.1666 92.0459 36.5412 91.7196C39.1325 91.5468 42.7987 91.3357 44.699 91.2589C48.4036 91.0861 48.6339 91.0477 56.0047 89.205L60.2084 88.1685H63.8746C68.2511 88.1685 71.6678 87.8998 72.4548 87.4775C73.9903 86.6905 73.5105 85.4044 71.2839 84.272C70.4969 83.8689 69.8442 83.4466 69.8442 83.3314C69.8442 83.197 70.2473 82.8899 70.7656 82.6404C71.3031 82.3525 72.4164 81.3927 73.4529 80.2986C74.8349 78.859 75.4299 78.0528 76.121 76.7284C76.6008 75.7878 77.0999 74.7129 77.2151 74.3482C77.6374 73.0046 78.194 69.0312 78.194 67.3421C78.194 65.2498 78.3668 64.1749 78.6547 64.1749C78.7891 64.1749 79.1729 64.3861 79.5377 64.6548C80.3246 65.2306 80.9773 65.269 81.2652 64.77C81.6107 64.0981 81.4763 63.4647 80.9197 62.9848C80.2863 62.4474 80.0175 61.6988 80.4014 61.5644C80.5358 61.5068 80.9197 61.6028 81.246 61.7564C81.9562 62.1403 82.7048 61.9099 82.8584 61.2765C83.0119 60.6815 82.7432 60.2592 81.7451 59.5682C80.4974 58.7044 80.3438 58.3589 80.1327 56.1131C79.7104 51.4871 78.7507 48.7806 75.7947 44.0203C75.1228 42.907 74.547 41.9089 74.547 41.7745C74.547 41.525 75.5451 41.4098 79.6528 41.1411C82.7624 40.9491 83.2807 40.834 83.8181 40.2197C84.202 39.7975 84.106 38.8761 83.6454 38.7033C83.4918 38.6458 82.4937 38.7033 81.4187 38.8377C78.4052 39.164 73.3569 39.3752 72.8195 39.1832C72.3588 39.0105 71.6294 38.2043 70.1706 36.2272C69.825 35.7665 69.5755 35.3826 69.5947 35.3826C69.6331 35.3634 70.9959 35.0371 72.6083 34.6148C75.1228 33.9814 75.833 33.7127 77.1191 32.9257C78.7507 31.9276 81.0349 30.987 82.8008 30.5839C84.4323 30.2 84.5667 30.104 84.4899 29.1827L84.4323 28.3765L83.4726 28.4341C82.0906 28.5109 79.2113 29.509 76.6584 30.7951C74.1247 32.0619 73.165 32.4074 71.3414 32.6954C70.6312 32.8105 69.5371 33.0409 68.9229 33.1944C67.8672 33.4631 67.7904 33.4631 67.3489 33.0984C66.7155 32.6186 65.2567 30.987 64.9879 30.4688C64.7384 29.9889 64.8728 29.7585 67.0226 27.244C69.6715 24.1344 70.4393 23.405 72.0708 22.4453C75.6411 20.3723 78.194 18.5103 78.194 17.9921C78.194 17.8961 78.0213 17.6082 77.8293 17.3587C77.3686 16.7444 76.8696 16.8788 75.2188 18.1073C74.5086 18.6447 72.8578 19.662 71.591 20.4106C69.134 21.8119 67.944 22.8676 65.8709 25.4973C65.2759 26.2267 64.4505 27.1864 64.0282 27.5895L63.2412 28.3381L62.7038 27.9926C62.4158 27.8007 61.3985 26.8793 60.4772 25.9388C58.6344 24.0961 57.905 23.5586 55.7936 22.4069C55.0258 22.0038 54.354 21.5623 54.3156 21.428C54.258 21.3128 54.5843 20.6218 55.0258 19.8924C56.2351 17.9345 56.1775 17.1091 54.6035 12.6559C53.0487 8.2219 51.0525 3.71111 50.2079 2.75137C49.4593 1.8684 48.9026 1.77243 48.2692 2.42506ZM55.8704 30.7951C57.0797 31.2557 58.2506 32.9449 58.2697 34.2693C58.2889 35.2291 57.6939 36.5151 57.0029 37.0718C55.7936 38.0123 53.8165 37.7436 52.7992 36.4767C51.206 34.4997 51.3404 32.0427 53.0871 30.9678C53.7781 30.5455 55.0258 30.4688 55.8704 30.7951ZM32.587 33.0793C33.2972 33.5015 33.9499 34.5956 34.1418 35.5938C34.5065 37.5133 31.9536 40.0278 30.0149 39.7015C29.1127 39.5479 27.9802 38.473 27.6923 37.5133C27.2316 35.9777 28.0762 33.943 29.535 33.0601C30.322 32.5802 31.8 32.5802 32.587 33.0793ZM44.008 34.634C45.0637 34.8644 45.8891 35.4018 46.1386 36.0353C46.3689 36.6495 46.177 36.8798 45.3132 37.0142C43.9888 37.2253 43.8352 37.3021 43.3361 38.0891C42.7795 38.9913 42.3188 39.0489 41.8581 38.2619C41.5126 37.686 40.6489 37.1102 40.1306 37.1102C39.977 37.1102 39.7083 36.9374 39.5356 36.7455C39.2284 36.4192 39.2284 36.3232 39.4972 35.8241C39.6507 35.517 39.9195 35.1523 40.073 34.9987C40.7448 34.4613 42.4532 34.2885 44.008 34.634ZM56.5614 50.8537C61.5713 51.4679 66.0053 53.0803 69.921 55.6908C71.5142 56.7657 75.0844 60.336 75.6795 61.4493C75.8906 61.8524 75.9674 62.9465 75.9674 66.3823C75.9866 71.5074 75.7755 72.8318 74.4894 75.4615C72.0708 80.4906 64.4313 85.1549 55.1602 87.2855C54.0469 87.5351 52.2809 87.9574 51.2252 88.2453C49.4977 88.6868 48.0389 88.8787 43.7392 89.2434C40.8024 89.5121 35.8885 88.5908 32.7214 87.228C29.0168 85.6156 25.4273 82.6788 22.9128 79.1469C20.4751 75.7302 19.2658 72.1792 18.7475 66.8238C18.6515 65.7489 18.6515 65.7489 19.7265 64.3285C24.8515 57.6295 29.7078 54.4239 38.5566 51.9286C40.3417 51.4103 43.4705 50.9305 47.6742 50.489C48.9218 50.3546 54.2772 50.585 56.5614 50.8537Z" stroke="white" stroke-width="4" mask="url(#path-1-outside-1_133_118)"/>
<path d="M56.5614 50.8537C61.5713 51.4679 66.0053 53.0803 69.921 55.6908C71.5142 56.7657 75.0844 60.336 75.6795 61.4493C75.8906 61.8524 75.9674 62.9465 75.9674 66.3823C75.9866 71.5074 75.7755 72.8318 74.4894 75.4615C72.0708 80.4906 64.4313 85.1549 55.1602 87.2855C54.0469 87.5351 52.2809 87.9574 51.2252 88.2453C49.4977 88.6868 48.0389 88.8787 43.7392 89.2434C40.8024 89.5121 35.8885 88.5908 32.7214 87.228C29.0168 85.6156 25.4273 82.6788 22.9128 79.1469C20.4751 75.7302 19.2658 72.1792 18.7475 66.8238C18.6515 65.7489 18.6515 65.7489 19.7265 64.3285C24.8515 57.6295 29.7078 54.4239 38.5566 51.9286C40.3417 51.4103 43.4705 50.9305 47.6742 50.489C48.9218 50.3546 54.2772 50.585 56.5614 50.8537Z" stroke="white" stroke-width="4" mask="url(#path-1-outside-1_133_118)"/>
<path d="M55.8704 30.7951C57.0797 31.2557 58.2506 32.9449 58.2697 34.2693C58.2889 35.2291 57.6939 36.5151 57.0029 37.0718C55.7936 38.0123 53.8165 37.7436 52.7992 36.4767C51.206 34.4997 51.3404 32.0427 53.0871 30.9678C53.7781 30.5455 55.0258 30.4688 55.8704 30.7951Z" stroke="white" stroke-width="4" mask="url(#path-1-outside-1_133_118)"/>
<path d="M44.008 34.634C45.0637 34.8644 45.8891 35.4018 46.1386 36.0353C46.3689 36.6495 46.177 36.8798 45.3132 37.0142C43.9888 37.2253 43.8352 37.3021 43.3361 38.0891C42.7795 38.9913 42.3188 39.0489 41.8581 38.2619C41.5126 37.686 40.6489 37.1102 40.1306 37.1102C39.977 37.1102 39.7083 36.9374 39.5356 36.7455C39.2284 36.4192 39.2284 36.3232 39.4972 35.8241C39.6507 35.517 39.9195 35.1523 40.073 34.9987C40.7448 34.4613 42.4532 34.2885 44.008 34.634Z" stroke="white" stroke-width="4" mask="url(#path-1-outside-1_133_118)"/>
<path d="M32.587 33.0793C33.2972 33.5015 33.9499 34.5956 34.1418 35.5938C34.5065 37.5133 31.9536 40.0278 30.0149 39.7015C29.1127 39.5479 27.9802 38.473 27.6923 37.5133C27.2316 35.9777 28.0762 33.943 29.535 33.0601C30.322 32.5802 31.8 32.5802 32.587 33.0793Z" stroke="white" stroke-width="4" mask="url(#path-1-outside-1_133_118)"/>
<path d="M54.877 36.9512C55.2403 36.9166 55.5615 36.7696 55.8018 36.626C56.0931 36.4518 56.3649 36.2236 56.5957 35.9805C56.8269 35.7369 57.0406 35.4534 57.2021 35.1533C57.3562 34.8672 57.5038 34.4904 57.5039 34.0781C57.5039 33.3345 57.1651 32.6582 56.7188 32.1807C56.2765 31.7075 55.6151 31.3115 54.8525 31.3115C54.5327 31.3115 54.1273 31.3407 53.7373 31.5723C53.363 31.7946 53.133 32.1291 52.9648 32.4023C52.4207 33.2867 52.3416 34.3423 52.5967 35.1963C52.8432 36.0213 53.5315 36.959 54.7188 36.959L54.877 36.9512Z" fill="black" stroke="white" stroke-width="2"/>
<path d="M30.9365 39.0498C31.425 39.0367 32.005 38.9085 32.4717 38.5801L32.4707 38.5791C32.9477 38.2457 33.1539 37.7319 33.2412 37.3301C33.3332 36.9065 33.331 36.4517 33.2695 36.0352C33.2079 35.6174 33.0786 35.1816 32.873 34.8008C32.6772 34.438 32.3477 34.0095 31.8262 33.8008L31.8174 33.7969L31.8086 33.7939C30.7964 33.411 29.5826 33.5721 28.8652 34.4961L28.8643 34.4951C27.885 35.7415 28.1421 37.6589 29.3838 38.6104C29.8536 38.9734 30.4682 39.0624 30.9365 39.0498Z" fill="black" stroke="white" stroke-width="2"/>
<path d="M60.0557 66.5981C60.5151 66.8364 61.0959 66.9424 61.6846 66.6353C62.045 66.4471 62.3234 66.1423 62.5488 65.8188L62.7578 65.4927L62.7588 65.4907C63.0249 65.0418 63.3578 64.6193 63.6562 64.3208C63.7813 64.1958 63.8881 64.1087 63.9668 64.0513C64.0185 64.0701 64.0912 64.1008 64.1885 64.1577C64.4277 64.2977 64.7543 64.5441 65.2295 64.9634L65.2324 64.9663C65.4789 65.182 65.7253 65.3813 65.9277 65.5317C66.0272 65.6056 66.129 65.6773 66.2217 65.7349C66.2664 65.7627 66.3266 65.7986 66.3936 65.8306C66.4269 65.8465 66.4777 65.869 66.5391 65.8892C66.5878 65.9052 66.7109 65.9429 66.8701 65.9429L67.0117 65.9331C67.1431 65.9152 67.2398 65.8772 67.2783 65.8618C67.351 65.8328 67.4131 65.8008 67.457 65.7759C67.5463 65.7252 67.6335 65.6653 67.709 65.6099C67.8637 65.4962 68.0381 65.3497 68.2051 65.1938H68.2041C68.3168 65.0901 68.448 64.9686 68.5547 64.8452C68.6654 64.7172 68.8225 64.5077 68.8916 64.2153C68.9652 63.9037 68.9086 63.6336 68.8428 63.4429C68.7843 63.2736 68.6968 63.1096 68.6328 62.9907L68.6318 62.9917C68.3877 62.5266 67.9068 61.9835 67.4707 61.5571C67.0233 61.1197 66.4694 60.6534 66.0127 60.4116L66.0029 60.4067L65.9922 60.4019C65.1118 59.9617 64.2173 59.7337 63.2969 59.9351L63.2939 59.936C61.5514 60.3233 60.2568 61.4922 59.3867 63.2759L59.3877 63.2769C59.112 63.8408 58.9566 64.4534 59.0264 65.0454C59.1001 65.6699 59.4274 66.2428 60.0234 66.5806L60.0391 66.5903L60.0557 66.5981Z" fill="black" stroke="white" stroke-width="2"/>
<path d="M47.5889 66.1929C47.5618 66.2414 47.5546 66.24 47.6152 66.1743C47.6662 66.1191 47.7401 66.0452 47.8379 65.9565C48.0328 65.7798 48.2858 65.5734 48.5479 65.3755C48.7963 65.1878 49.0386 65.0201 49.2324 64.8989C49.3809 64.9958 49.5591 65.1214 49.7363 65.2632C50.7129 66.0463 51.3111 66.5264 51.709 66.7573C51.9229 66.8814 52.2238 67.0246 52.5918 67.0151C52.9491 67.0058 53.2245 66.8471 53.3008 66.8071L53.3076 66.8042L53.3145 66.8003C53.6846 66.5991 54.0151 66.296 54.2031 65.8687C54.3912 65.4411 54.3896 64.9954 54.2891 64.5952C54.1 63.8434 53.5336 63.1186 52.8262 62.4624L52.8252 62.4634C52.2298 61.906 51.7324 61.4732 51.1885 61.2095C50.5951 60.9219 50.0311 60.8716 49.4014 60.8716C48.9301 60.8716 48.5101 60.9021 48.0889 61.0239C47.6658 61.1464 47.3038 61.3427 46.9238 61.5854L46.9199 61.5884C45.7452 62.3473 44.7933 63.275 44.2549 64.1753C43.989 64.62 43.7795 65.1319 43.7607 65.6587C43.7403 66.2325 43.9547 66.8169 44.4932 67.2095L44.4941 67.2085C44.6936 67.3545 45.032 67.5715 45.5029 67.5542C45.8995 67.5395 46.2381 67.3576 46.457 67.2339L46.4561 67.2329C46.6813 67.1149 46.8943 66.965 47.0703 66.811C47.2016 66.6961 47.3515 66.5461 47.4766 66.3716L47.5889 66.1929ZM47.5889 66.1929C47.59 66.1909 47.5916 66.1891 47.5928 66.187L47.5918 66.189L47.5889 66.1929Z" fill="black" stroke="white" stroke-width="2"/>
<path d="M32.3037 67.6401C32.5636 67.9482 33.121 68.5407 33.9502 68.3804C34.3156 68.3096 34.5934 68.1105 34.7871 67.9331C34.981 67.7555 35.1596 67.5363 35.3262 67.3081L35.6738 66.8628C36.023 66.4347 36.3715 66.0614 36.6738 65.7798C36.806 65.6567 36.9232 65.5611 37.0195 65.4868C37.2168 65.6551 37.4822 65.9163 37.8154 66.2847C38.1119 66.6249 38.3886 66.9166 38.6465 67.1479C38.8973 67.373 39.1854 67.5923 39.5029 67.7212C39.8445 67.8598 40.3169 67.9269 40.7764 67.6655C41.0812 67.492 41.2694 67.233 41.3887 66.9995L41.4863 66.7788L41.4893 66.7729C41.9506 65.5481 41.3968 64.2494 40.6748 63.3511C39.9234 62.4163 38.7726 61.6188 37.4873 61.3862L37.4775 61.3843L37.4668 61.3823C36.7065 61.2608 36.0321 61.4437 35.2412 61.8071L35.2324 61.811C34.0109 62.386 32.8117 63.6636 32.1211 65.0015L32.1152 65.0132C31.9311 65.3814 31.7131 65.8468 31.7295 66.354C31.7481 66.9309 32.0519 67.344 32.3037 67.6401Z" fill="black" stroke="white" stroke-width="2"/>
<path d="M22.583 70.9956C23.1599 71.1812 23.6971 70.9847 24.0684 70.7671C24.7628 70.36 25.4658 69.5385 26.1387 68.5103C26.1685 68.4942 26.2018 68.4769 26.2373 68.4595C26.3213 68.5546 26.4283 68.6807 26.5684 68.854L26.5771 68.8638L26.585 68.8735C27.0432 69.4114 27.523 69.8795 28.0645 70.1245C28.703 70.4134 29.3267 70.3518 29.8887 70.0483H29.8896C29.8908 70.0477 29.8924 70.047 29.8936 70.0464C29.8951 70.0455 29.8969 70.0443 29.8984 70.0435H29.8975C30.1701 69.8966 30.4412 69.6715 30.6162 69.3325C30.7932 68.9896 30.8205 68.6306 30.7773 68.3101C30.6987 67.7263 30.364 67.1158 29.9609 66.5161L29.96 66.5142C29.4133 65.7051 28.8412 65.1474 28.0625 64.7983L28.0547 64.7944L28.0479 64.7915C27.4241 64.5242 26.8629 64.2858 26.3066 64.2583C25.684 64.2276 25.176 64.4585 24.6865 64.6938V64.6948C23.3453 65.3114 22.5264 66.2174 21.8184 67.6978L21.8193 67.6987C21.6426 68.0535 21.4908 68.3999 21.4238 68.7505C21.3466 69.1548 21.3895 69.5069 21.5029 69.8472L21.5059 69.856L21.5098 69.8657C21.6657 70.3039 21.9827 70.8022 22.583 70.9956ZM26.0605 68.5542L26.0625 68.5532C26.0608 68.5545 26.0595 68.5555 26.0586 68.5562C26.0577 68.5568 26.0569 68.557 26.0566 68.5571C26.057 68.5569 26.0582 68.5557 26.0605 68.5542Z" fill="black" stroke="white" stroke-width="2"/>
<path d="M51.5801 75.0894C52.0363 75.0894 52.4253 74.8551 52.6641 74.6929C52.943 74.5033 53.2525 74.2418 53.5879 73.936L53.5898 73.9351C54.4523 73.146 54.9718 72.899 55.3828 72.8608C55.7874 72.8233 56.3204 72.9665 57.2676 73.5767L57.2686 73.5776C57.6 73.7907 57.8736 73.9656 58.0957 74.0962C58.3077 74.2208 58.5387 74.3451 58.7754 74.4185C59.0527 74.5044 59.3526 74.5253 59.667 74.4292C59.9197 74.3519 60.127 74.2098 60.2256 74.144L60.2246 74.1431C60.48 73.9744 60.7542 73.7408 60.9346 73.4067C61.1326 73.04 61.1712 72.6406 61.0811 72.2573C60.9985 71.9067 60.8167 71.5994 60.6221 71.3403C60.4228 71.0752 60.1687 70.806 59.8789 70.5317L59.875 70.5278C59.047 69.7529 58.1921 69.206 57.1973 68.9526C56.2057 68.7002 55.1759 68.7658 54.043 69.0386L54.0371 69.0396C52.8793 69.3263 51.887 69.8076 51.1875 70.5229C50.464 71.2628 50.1041 72.2058 50.1699 73.2593V73.2612C50.1902 73.5751 50.2334 73.9492 50.374 74.269C50.4497 74.4412 50.5775 74.6542 50.7979 74.8247C51.0345 75.0079 51.3105 75.0893 51.5801 75.0894Z" fill="black" stroke="white" stroke-width="2"/>
<path d="M33.8018 76.4688C34.2006 76.7111 34.6345 76.7272 35.0127 76.6279C35.36 76.5368 35.6743 76.3473 35.9453 76.1436C36.2237 75.9342 36.5136 75.6663 36.8154 75.3545C37.5248 74.6282 38.1154 74.325 38.6914 74.2539C39.2137 74.1895 39.8572 74.2993 40.7314 74.6914L41.1211 74.877C41.454 75.0482 41.8095 75.202 42.1172 75.3154C42.2723 75.3726 42.4264 75.4239 42.5664 75.4619C42.6792 75.4926 42.8727 75.541 43.0684 75.541L43.209 75.5342C43.8983 75.471 44.3266 74.9517 44.5146 74.5479C44.7251 74.0956 44.7858 73.5156 44.5869 72.9668L44.5889 72.9658C44.5884 72.9645 44.5874 72.9633 44.5869 72.9619C44.5841 72.9542 44.582 72.9462 44.5791 72.9385L44.5771 72.9395C44.4427 72.5766 44.159 72.2825 43.9717 72.1064C43.7396 71.8883 43.4566 71.6694 43.165 71.4697C42.5989 71.082 41.8802 70.6863 41.2754 70.5098L41.2646 70.5068L41.2549 70.5039C40.6219 70.3335 39.7444 70.2773 38.9521 70.2949C38.1718 70.3123 37.2966 70.4045 36.6943 70.627V70.6279C35.4467 71.078 34.2643 72.0783 33.5068 73.3203L33.5059 73.3193C33.2781 73.6838 33.0571 74.0544 32.9648 74.4277C32.8437 74.9185 32.9594 75.3043 33.0889 75.6064L33.0928 75.6143L33.0957 75.623C33.2253 75.9109 33.4377 76.2475 33.8018 76.4688Z" fill="black" stroke="white" stroke-width="2"/>
</svg>
